<?xml version="1.0" encoding="UTF-8" standalone="no"?>
<!-- Created with Inkscape (http://www.inkscape.org/) -->

<svg
   width="25mm"
   height="25mm"
   viewBox="0 0 25 25"
   version="1.1"
   id="svg5"
   xml:space="preserve"
   inkscape:version="1.2 (dc2aedaf03, 2022-05-15)"
   sodipodi:docname="paper.svg"
   xmlns:inkscape="http://www.inkscape.org/namespaces/inkscape"
   xmlns:sodipodi="http://sodipodi.sourceforge.net/DTD/sodipodi-0.dtd"
   xmlns="http://www.w3.org/2000/svg"
   xmlns:svg="http://www.w3.org/2000/svg"><sodipodi:namedview
     id="namedview7"
     pagecolor="#505050"
     bordercolor="#eeeeee"
     borderopacity="1"
     inkscape:showpageshadow="0"
     inkscape:pageopacity="0"
     inkscape:pagecheckerboard="0"
     inkscape:deskcolor="#505050"
     inkscape:document-units="mm"
     showgrid="false"
     inkscape:zoom="5.6568543"
     inkscape:cx="60.369241"
     inkscape:cy="53.563339"
     inkscape:window-width="1920"
     inkscape:window-height="1017"
     inkscape:window-x="-8"
     inkscape:window-y="-8"
     inkscape:window-maximized="1"
     inkscape:current-layer="svg5"><inkscape:page
       x="0"
       y="0"
       width="25"
       height="25"
       id="page716" /><inkscape:page
       x="60"
       y="0"
       width="381"
       height="381"
       id="page718" /></sodipodi:namedview><defs
     id="defs2"><clipPath
       clipPathUnits="userSpaceOnUse"
       id="clipPath25"><path
         d="M 0,1080 H 1080 V 0 H 0 Z"
         id="path23" /></clipPath><clipPath
       clipPathUnits="userSpaceOnUse"
       id="clipPath33"><path
         d="M 345.947,904.217 H 746.983 V 154.45 H 345.947 Z"
         id="path31" /></clipPath><clipPath
       clipPathUnits="userSpaceOnUse"
       id="clipPath37"><path
         d="m 453.284,638.706 h 0.02 v -0.11 h -0.02 z"
         id="path35" /></clipPath><clipPath
       clipPathUnits="userSpaceOnUse"
       id="clipPath77"><path
         d="m 488.092,604.554 h 73.915 V 175.783 h -73.915 z"
         id="path75" /></clipPath><clipPath
       clipPathUnits="userSpaceOnUse"
       id="clipPath129"><path
         d="m 333.017,915.164 h 158.73 v -335.03 h -158.73 z"
         id="path127" /></clipPath><clipPath
       clipPathUnits="userSpaceOnUse"
       id="clipPath145"><path
         d="M 546.469,921.894 H 708.597 V 580.134 H 546.469 Z"
         id="path143" /></clipPath><clipPath
       clipPathUnits="userSpaceOnUse"
       id="clipPath161"><path
         d="m 504.935,609.706 h 54.902 V 175.783 h -54.902 z"
         id="path159" /></clipPath><clipPath
       id="clip-path"><circle
         cx="400"
         cy="400"
         r="400"
         style="fill:none"
         id="circle1028" /></clipPath><linearGradient
       id="Unbenannter_Verlauf_66"
       x1="404.70291"
       y1="387.70291"
       x2="139.7002"
       y2="652.70569"
       gradientUnits="userSpaceOnUse"><stop
         offset="0"
         id="stop1031" /><stop
         offset="1"
         stop-opacity="0"
         id="stop1033" /></linearGradient><filter
       id="a"
       color-interpolation-filters="sRGB"
       x="-0.029732194"
       y="-0.076233707"
       width="1.059422"
       height="1.1526316"><feGaussianBlur
         stdDeviation="12.898788"
         id="feGaussianBlur1162" /></filter><clipPath
       clipPathUnits="userSpaceOnUse"
       id="clipPath25-0"><path
         d="M 0,1080 H 1080 V 0 H 0 Z"
         id="path23-8" /></clipPath><clipPath
       clipPathUnits="userSpaceOnUse"
       id="clipPath33-9"><path
         d="M 345.947,904.217 H 746.983 V 154.45 H 345.947 Z"
         id="path31-0" /></clipPath><clipPath
       clipPathUnits="userSpaceOnUse"
       id="clipPath37-1"><path
         d="m 453.284,638.706 h 0.02 v -0.11 h -0.02 z"
         id="path35-9" /></clipPath><clipPath
       clipPathUnits="userSpaceOnUse"
       id="clipPath77-1"><path
         d="m 488.092,604.554 h 73.915 V 175.783 h -73.915 z"
         id="path75-4" /></clipPath><clipPath
       clipPathUnits="userSpaceOnUse"
       id="clipPath129-9"><path
         d="m 333.017,915.164 h 158.73 v -335.03 h -158.73 z"
         id="path127-2" /></clipPath><clipPath
       clipPathUnits="userSpaceOnUse"
       id="clipPath145-7"><path
         d="M 546.469,921.894 H 708.597 V 580.134 H 546.469 Z"
         id="path143-7" /></clipPath><clipPath
       clipPathUnits="userSpaceOnUse"
       id="clipPath161-9"><path
         d="m 504.935,609.706 h 54.902 V 175.783 h -54.902 z"
         id="path159-1" /></clipPath><clipPath
       id="clip-path-7"><circle
         cx="400"
         cy="400"
         r="400"
         style="fill:none"
         id="circle1028-1" /></clipPath><filter
       id="a-9"
       color-interpolation-filters="sRGB"
       x="-0.029732194"
       y="-0.076233707"
       width="1.059422"
       height="1.1526316"><feGaussianBlur
         stdDeviation="12.898788"
         id="feGaussianBlur1162-1" /></filter><clipPath
       clipPathUnits="userSpaceOnUse"
       id="clipPath564"><path
         d="M 345.947,904.217 H 746.983 V 154.45 H 345.947 Z"
         id="path562" /></clipPath><clipPath
       clipPathUnits="userSpaceOnUse"
       id="clipPath568"><path
         d="m 453.284,638.706 h 0.02 v -0.11 h -0.02 z"
         id="path566" /></clipPath><clipPath
       clipPathUnits="userSpaceOnUse"
       id="clipPath608"><path
         d="m 488.092,604.554 h 73.915 V 175.783 h -73.915 z"
         id="path606" /></clipPath><clipPath
       clipPathUnits="userSpaceOnUse"
       id="clipPath660"><path
         d="m 333.017,915.164 h 158.73 v -335.03 h -158.73 z"
         id="path658" /></clipPath><clipPath
       clipPathUnits="userSpaceOnUse"
       id="clipPath676"><path
         d="M 546.469,921.894 H 708.597 V 580.134 H 546.469 Z"
         id="path674" /></clipPath><clipPath
       clipPathUnits="userSpaceOnUse"
       id="clipPath692"><path
         d="m 504.935,609.706 h 54.902 V 175.783 h -54.902 z"
         id="path690" /></clipPath><clipPath
       clipPathUnits="userSpaceOnUse"
       id="clipPath958"><path
         d="M 1.6245485e-6,1080 H 1080 V -9.5442213e-6 L 9.3614599e-6,8.5085717e-6 Z"
         id="path960"
         style="stroke-width:1" /></clipPath><clipPath
       clipPathUnits="userSpaceOnUse"
       id="clipPath962"><path
         d="M 1.6245485e-6,1080 H 1080 V -9.5442213e-6 L 9.3614599e-6,8.5085717e-6 Z"
         id="path964"
         style="stroke-width:1" /></clipPath><clipPath
       clipPathUnits="userSpaceOnUse"
       id="clipPath966"><path
         d="M 1.6245485e-6,1080 H 1080 V -9.5442213e-6 L 9.3614599e-6,8.5085717e-6 Z"
         id="path968"
         style="stroke-width:1" /></clipPath><clipPath
       clipPathUnits="userSpaceOnUse"
       id="clipPath970"><path
         d="m -440.35399,420.0708 1079.99999,-1e-5 2e-5,-1080 -1080,2e-5 z"
         id="path972"
         style="stroke-width:1" /></clipPath><clipPath
       clipPathUnits="userSpaceOnUse"
       id="clipPath974"><path
         d="m -583.8232,247.3003 1079.99999,-1e-5 2e-5,-1080 -1080,2e-5 z"
         id="path976"
         style="stroke-width:1" /></clipPath><clipPath
       clipPathUnits="userSpaceOnUse"
       id="clipPath978"><path
         d="m -583.8232,247.3003 1079.99999,-1e-5 2e-5,-1080 -1080,2e-5 z"
         id="path980"
         style="stroke-width:1" /></clipPath><clipPath
       clipPathUnits="userSpaceOnUse"
       id="clipPath982"><path
         d="m -626.6992,419.96041 1079.99999,-1e-5 2e-5,-1080 -1080,2e-5 z"
         id="path984"
         style="stroke-width:1" /></clipPath><clipPath
       clipPathUnits="userSpaceOnUse"
       id="clipPath986"><path
         d="m -425.8711,304.6802 1079.99999,-1e-5 2e-5,-1080 -1080,10e-6 z"
         id="path988"
         style="stroke-width:1" /></clipPath><clipPath
       clipPathUnits="userSpaceOnUse"
       id="clipPath990"><path
         d="m -425.8711,304.6802 1079.99999,-1e-5 2e-5,-1080 -1080,10e-6 z"
         id="path992"
         style="stroke-width:1" /></clipPath><clipPath
       clipPathUnits="userSpaceOnUse"
       id="clipPath994"><path
         d="m -683.9395,229.3105 1080,-1e-5 2e-5,-1080 -1080.00001,2e-5 z"
         id="path996"
         style="stroke-width:1" /></clipPath><clipPath
       clipPathUnits="userSpaceOnUse"
       id="clipPath998"><path
         d="m -533.3071,593.74611 1079.99999,-1e-5 2e-5,-1080 -1080,10e-6 z"
         id="path1000"
         style="stroke-width:1" /></clipPath><clipPath
       clipPathUnits="userSpaceOnUse"
       id="clipPath1002"><path
         d="m -533.3071,593.74611 1079.99999,-1e-5 2e-5,-1080 -1080,10e-6 z"
         id="path1004"
         style="stroke-width:1" /></clipPath><clipPath
       clipPathUnits="userSpaceOnUse"
       id="clipPath1006"><path
         d="M 1.6245485e-6,1080 H 1080 V -9.5442213e-6 L 9.3614599e-6,8.5085717e-6 Z"
         id="path1008"
         style="stroke-width:1" /></clipPath><clipPath
       clipPathUnits="userSpaceOnUse"
       id="clipPath1010"><path
         d="m -546.8564,580.19531 1079.99999,-10e-6 2e-5,-1080 -1080,1e-5 z"
         id="path1012"
         style="stroke-width:1" /></clipPath><clipPath
       clipPathUnits="userSpaceOnUse"
       id="clipPath1014"><path
         d="m -546.8564,580.19531 1079.99999,-10e-6 2e-5,-1080 -1080,1e-5 z"
         id="path1016"
         style="stroke-width:1" /></clipPath><clipPath
       clipPathUnits="userSpaceOnUse"
       id="clipPath1018"><path
         d="M 1.6245485e-6,1080 H 1080 V -9.5442213e-6 L 9.3614599e-6,8.5085717e-6 Z"
         id="path1020"
         style="stroke-width:1" /></clipPath><clipPath
       clipPathUnits="userSpaceOnUse"
       id="clipPath25-3"><path
         d="M 0,1080 H 1080 V 0 H 0 Z"
         id="path23-9" /></clipPath><clipPath
       clipPathUnits="userSpaceOnUse"
       id="clipPath33-4"><path
         d="M 345.947,904.217 H 746.983 V 154.45 H 345.947 Z"
         id="path31-1" /></clipPath><clipPath
       clipPathUnits="userSpaceOnUse"
       id="clipPath37-3"><path
         d="m 453.284,638.706 h 0.02 v -0.11 h -0.02 z"
         id="path35-99" /></clipPath><clipPath
       clipPathUnits="userSpaceOnUse"
       id="clipPath77-9"><path
         d="m 488.092,604.554 h 73.915 V 175.783 h -73.915 z"
         id="path75-7" /></clipPath><clipPath
       clipPathUnits="userSpaceOnUse"
       id="clipPath129-6"><path
         d="m 333.017,915.164 h 158.73 v -335.03 h -158.73 z"
         id="path127-4" /></clipPath><clipPath
       clipPathUnits="userSpaceOnUse"
       id="clipPath145-6"><path
         d="M 546.469,921.894 H 708.597 V 580.134 H 546.469 Z"
         id="path143-0" /></clipPath><clipPath
       clipPathUnits="userSpaceOnUse"
       id="clipPath161-0"><path
         d="m 504.935,609.706 h 54.902 V 175.783 h -54.902 z"
         id="path159-5" /></clipPath><clipPath
       id="clip-path-5"><circle
         cx="400"
         cy="400"
         r="400"
         style="fill:none"
         id="circle1028-3" /></clipPath><filter
       id="a-0"
       color-interpolation-filters="sRGB"
       x="-0.029732194"
       y="-0.076233707"
       width="1.059422"
       height="1.1526316"><feGaussianBlur
         stdDeviation="12.898788"
         id="feGaussianBlur1162-0" /></filter><clipPath
       clipPathUnits="userSpaceOnUse"
       id="clipPath25-6"><path
         d="M 0,1080 H 1080 V 0 H 0 Z"
         id="path23-83" /></clipPath><clipPath
       clipPathUnits="userSpaceOnUse"
       id="clipPath33-2"><path
         d="M 345.947,904.217 H 746.983 V 154.45 H 345.947 Z"
         id="path31-5" /></clipPath><clipPath
       clipPathUnits="userSpaceOnUse"
       id="clipPath37-4"><path
         d="m 453.284,638.706 h 0.02 v -0.11 h -0.02 z"
         id="path35-4" /></clipPath><clipPath
       clipPathUnits="userSpaceOnUse"
       id="clipPath77-3"><path
         d="m 488.092,604.554 h 73.915 V 175.783 h -73.915 z"
         id="path75-71" /></clipPath><clipPath
       clipPathUnits="userSpaceOnUse"
       id="clipPath129-5"><path
         d="m 333.017,915.164 h 158.73 v -335.03 h -158.73 z"
         id="path127-3" /></clipPath><clipPath
       clipPathUnits="userSpaceOnUse"
       id="clipPath145-5"><path
         d="M 546.469,921.894 H 708.597 V 580.134 H 546.469 Z"
         id="path143-1" /></clipPath><clipPath
       clipPathUnits="userSpaceOnUse"
       id="clipPath161-5"><path
         d="m 504.935,609.706 h 54.902 V 175.783 h -54.902 z"
         id="path159-9" /></clipPath><clipPath
       id="clip-path-70"><circle
         cx="400"
         cy="400"
         r="400"
         style="fill:none"
         id="circle1028-4" /></clipPath><filter
       id="a-6"
       color-interpolation-filters="sRGB"
       x="-0.029732194"
       y="-0.076233707"
       width="1.059422"
       height="1.1526316"><feGaussianBlur
         stdDeviation="12.898788"
         id="feGaussianBlur1162-2" /></filter></defs><g
     inkscape:label="Layer 1"
     inkscape:groupmode="layer"
     id="layer1" /><g
     id="g1401"
     transform="matrix(1.8847046,0,0,1.8847046,0.03297818,0.03315366)"
     style="fill:#ffffff"><g
       id="layer1-6"
       transform="matrix(0.02968745,-0.00679411,0.00679411,0.02968745,-19.693233,-0.14225949)"
       style="fill:#ffffff"><g
         id="g1350"
         transform="matrix(1.2036399,-0.22250421,0.22250421,1.2036399,245.042,58.640736)"
         style="fill:#ffffff"><path
           id="path4718"
           d="M 182.42,394.8784 617.58,274.4326 481.9456,525.5674 356.9079,441.8558 616.9394,274.852 342.4262,439.03 325.472,523.4481 292.27,430.2 616.8952,274.83 286.2652,423.842 Z"
           style="fill:#ffffff" /><path
           id="path4720"
           d="m 333.9176,525.3425 55.9462,-50.951 -35.9655,-26.4745 z"
           style="fill:#ffffff" /></g></g><g
       inkscape:label="Layer 1"
       id="layer1-1"
       style="fill:#ffffff" /></g></svg>
