<?xml version="1.0" encoding="UTF-8" standalone="no"?>
<!-- Created with Inkscape (http://www.inkscape.org/) -->

<svg
   width="25mm"
   height="25mm"
   viewBox="0 0 25 25"
   version="1.1"
   id="svg5"
   xml:space="preserve"
   inkscape:version="1.2 (dc2aedaf03, 2022-05-15)"
   sodipodi:docname="rock_paper_scissors.svg"
   xmlns:inkscape="http://www.inkscape.org/namespaces/inkscape"
   xmlns:sodipodi="http://sodipodi.sourceforge.net/DTD/sodipodi-0.dtd"
   xmlns="http://www.w3.org/2000/svg"
   xmlns:svg="http://www.w3.org/2000/svg"><sodipodi:namedview
     id="namedview7"
     pagecolor="#505050"
     bordercolor="#eeeeee"
     borderopacity="1"
     inkscape:showpageshadow="0"
     inkscape:pageopacity="0"
     inkscape:pagecheckerboard="0"
     inkscape:deskcolor="#505050"
     inkscape:document-units="mm"
     showgrid="false"
     inkscape:zoom="4"
     inkscape:cx="29.875"
     inkscape:cy="13"
     inkscape:window-width="1920"
     inkscape:window-height="1017"
     inkscape:window-x="-8"
     inkscape:window-y="-8"
     inkscape:window-maximized="1"
     inkscape:current-layer="svg5"><inkscape:page
       x="0"
       y="0"
       width="25"
       height="25"
       id="page716" /><inkscape:page
       x="60"
       y="0"
       width="381"
       height="381"
       id="page718" /></sodipodi:namedview><defs
     id="defs2"><clipPath
       clipPathUnits="userSpaceOnUse"
       id="clipPath25"><path
         d="M 0,1080 H 1080 V 0 H 0 Z"
         id="path23" /></clipPath><clipPath
       clipPathUnits="userSpaceOnUse"
       id="clipPath33"><path
         d="M 345.947,904.217 H 746.983 V 154.45 H 345.947 Z"
         id="path31" /></clipPath><clipPath
       clipPathUnits="userSpaceOnUse"
       id="clipPath37"><path
         d="m 453.284,638.706 h 0.02 v -0.11 h -0.02 z"
         id="path35" /></clipPath><clipPath
       clipPathUnits="userSpaceOnUse"
       id="clipPath77"><path
         d="m 488.092,604.554 h 73.915 V 175.783 h -73.915 z"
         id="path75" /></clipPath><clipPath
       clipPathUnits="userSpaceOnUse"
       id="clipPath129"><path
         d="m 333.017,915.164 h 158.73 v -335.03 h -158.73 z"
         id="path127" /></clipPath><clipPath
       clipPathUnits="userSpaceOnUse"
       id="clipPath145"><path
         d="M 546.469,921.894 H 708.597 V 580.134 H 546.469 Z"
         id="path143" /></clipPath><clipPath
       clipPathUnits="userSpaceOnUse"
       id="clipPath161"><path
         d="m 504.935,609.706 h 54.902 V 175.783 h -54.902 z"
         id="path159" /></clipPath><clipPath
       id="clip-path"><circle
         cx="400"
         cy="400"
         r="400"
         style="fill:none"
         id="circle1028" /></clipPath><linearGradient
       id="Unbenannter_Verlauf_66"
       x1="404.70291"
       y1="387.70291"
       x2="139.7002"
       y2="652.70569"
       gradientUnits="userSpaceOnUse"><stop
         offset="0"
         id="stop1031" /><stop
         offset="1"
         stop-opacity="0"
         id="stop1033" /></linearGradient><filter
       id="a"
       color-interpolation-filters="sRGB"
       x="-0.029732194"
       y="-0.076233707"
       width="1.059422"
       height="1.1526316"><feGaussianBlur
         stdDeviation="12.898788"
         id="feGaussianBlur1162" /></filter><clipPath
       clipPathUnits="userSpaceOnUse"
       id="clipPath25-0"><path
         d="M 0,1080 H 1080 V 0 H 0 Z"
         id="path23-8" /></clipPath><clipPath
       clipPathUnits="userSpaceOnUse"
       id="clipPath33-9"><path
         d="M 345.947,904.217 H 746.983 V 154.45 H 345.947 Z"
         id="path31-0" /></clipPath><clipPath
       clipPathUnits="userSpaceOnUse"
       id="clipPath37-1"><path
         d="m 453.284,638.706 h 0.02 v -0.11 h -0.02 z"
         id="path35-9" /></clipPath><clipPath
       clipPathUnits="userSpaceOnUse"
       id="clipPath77-1"><path
         d="m 488.092,604.554 h 73.915 V 175.783 h -73.915 z"
         id="path75-4" /></clipPath><clipPath
       clipPathUnits="userSpaceOnUse"
       id="clipPath129-9"><path
         d="m 333.017,915.164 h 158.73 v -335.03 h -158.73 z"
         id="path127-2" /></clipPath><clipPath
       clipPathUnits="userSpaceOnUse"
       id="clipPath145-7"><path
         d="M 546.469,921.894 H 708.597 V 580.134 H 546.469 Z"
         id="path143-7" /></clipPath><clipPath
       clipPathUnits="userSpaceOnUse"
       id="clipPath161-9"><path
         d="m 504.935,609.706 h 54.902 V 175.783 h -54.902 z"
         id="path159-1" /></clipPath><clipPath
       id="clip-path-7"><circle
         cx="400"
         cy="400"
         r="400"
         style="fill:none"
         id="circle1028-1" /></clipPath><filter
       id="a-9"
       color-interpolation-filters="sRGB"
       x="-0.029732194"
       y="-0.076233707"
       width="1.059422"
       height="1.1526316"><feGaussianBlur
         stdDeviation="12.898788"
         id="feGaussianBlur1162-1" /></filter><clipPath
       clipPathUnits="userSpaceOnUse"
       id="clipPath564"><path
         d="M 345.947,904.217 H 746.983 V 154.45 H 345.947 Z"
         id="path562" /></clipPath><clipPath
       clipPathUnits="userSpaceOnUse"
       id="clipPath568"><path
         d="m 453.284,638.706 h 0.02 v -0.11 h -0.02 z"
         id="path566" /></clipPath><clipPath
       clipPathUnits="userSpaceOnUse"
       id="clipPath608"><path
         d="m 488.092,604.554 h 73.915 V 175.783 h -73.915 z"
         id="path606" /></clipPath><clipPath
       clipPathUnits="userSpaceOnUse"
       id="clipPath660"><path
         d="m 333.017,915.164 h 158.73 v -335.03 h -158.73 z"
         id="path658" /></clipPath><clipPath
       clipPathUnits="userSpaceOnUse"
       id="clipPath676"><path
         d="M 546.469,921.894 H 708.597 V 580.134 H 546.469 Z"
         id="path674" /></clipPath><clipPath
       clipPathUnits="userSpaceOnUse"
       id="clipPath692"><path
         d="m 504.935,609.706 h 54.902 V 175.783 h -54.902 z"
         id="path690" /></clipPath><clipPath
       clipPathUnits="userSpaceOnUse"
       id="clipPath958"><path
         d="M 1.6245485e-6,1080 H 1080 V -9.5442213e-6 L 9.3614599e-6,8.5085717e-6 Z"
         id="path960"
         style="stroke-width:1" /></clipPath><clipPath
       clipPathUnits="userSpaceOnUse"
       id="clipPath962"><path
         d="M 1.6245485e-6,1080 H 1080 V -9.5442213e-6 L 9.3614599e-6,8.5085717e-6 Z"
         id="path964"
         style="stroke-width:1" /></clipPath><clipPath
       clipPathUnits="userSpaceOnUse"
       id="clipPath966"><path
         d="M 1.6245485e-6,1080 H 1080 V -9.5442213e-6 L 9.3614599e-6,8.5085717e-6 Z"
         id="path968"
         style="stroke-width:1" /></clipPath><clipPath
       clipPathUnits="userSpaceOnUse"
       id="clipPath970"><path
         d="m -440.35399,420.0708 1079.99999,-1e-5 2e-5,-1080 -1080,2e-5 z"
         id="path972"
         style="stroke-width:1" /></clipPath><clipPath
       clipPathUnits="userSpaceOnUse"
       id="clipPath974"><path
         d="m -583.8232,247.3003 1079.99999,-1e-5 2e-5,-1080 -1080,2e-5 z"
         id="path976"
         style="stroke-width:1" /></clipPath><clipPath
       clipPathUnits="userSpaceOnUse"
       id="clipPath978"><path
         d="m -583.8232,247.3003 1079.99999,-1e-5 2e-5,-1080 -1080,2e-5 z"
         id="path980"
         style="stroke-width:1" /></clipPath><clipPath
       clipPathUnits="userSpaceOnUse"
       id="clipPath982"><path
         d="m -626.6992,419.96041 1079.99999,-1e-5 2e-5,-1080 -1080,2e-5 z"
         id="path984"
         style="stroke-width:1" /></clipPath><clipPath
       clipPathUnits="userSpaceOnUse"
       id="clipPath986"><path
         d="m -425.8711,304.6802 1079.99999,-1e-5 2e-5,-1080 -1080,10e-6 z"
         id="path988"
         style="stroke-width:1" /></clipPath><clipPath
       clipPathUnits="userSpaceOnUse"
       id="clipPath990"><path
         d="m -425.8711,304.6802 1079.99999,-1e-5 2e-5,-1080 -1080,10e-6 z"
         id="path992"
         style="stroke-width:1" /></clipPath><clipPath
       clipPathUnits="userSpaceOnUse"
       id="clipPath994"><path
         d="m -683.9395,229.3105 1080,-1e-5 2e-5,-1080 -1080.00001,2e-5 z"
         id="path996"
         style="stroke-width:1" /></clipPath><clipPath
       clipPathUnits="userSpaceOnUse"
       id="clipPath998"><path
         d="m -533.3071,593.74611 1079.99999,-1e-5 2e-5,-1080 -1080,10e-6 z"
         id="path1000"
         style="stroke-width:1" /></clipPath><clipPath
       clipPathUnits="userSpaceOnUse"
       id="clipPath1002"><path
         d="m -533.3071,593.74611 1079.99999,-1e-5 2e-5,-1080 -1080,10e-6 z"
         id="path1004"
         style="stroke-width:1" /></clipPath><clipPath
       clipPathUnits="userSpaceOnUse"
       id="clipPath1006"><path
         d="M 1.6245485e-6,1080 H 1080 V -9.5442213e-6 L 9.3614599e-6,8.5085717e-6 Z"
         id="path1008"
         style="stroke-width:1" /></clipPath><clipPath
       clipPathUnits="userSpaceOnUse"
       id="clipPath1010"><path
         d="m -546.8564,580.19531 1079.99999,-10e-6 2e-5,-1080 -1080,1e-5 z"
         id="path1012"
         style="stroke-width:1" /></clipPath><clipPath
       clipPathUnits="userSpaceOnUse"
       id="clipPath1014"><path
         d="m -546.8564,580.19531 1079.99999,-10e-6 2e-5,-1080 -1080,1e-5 z"
         id="path1016"
         style="stroke-width:1" /></clipPath><clipPath
       clipPathUnits="userSpaceOnUse"
       id="clipPath1018"><path
         d="M 1.6245485e-6,1080 H 1080 V -9.5442213e-6 L 9.3614599e-6,8.5085717e-6 Z"
         id="path1020"
         style="stroke-width:1" /></clipPath><clipPath
       clipPathUnits="userSpaceOnUse"
       id="clipPath25-3"><path
         d="M 0,1080 H 1080 V 0 H 0 Z"
         id="path23-9" /></clipPath><clipPath
       clipPathUnits="userSpaceOnUse"
       id="clipPath33-4"><path
         d="M 345.947,904.217 H 746.983 V 154.45 H 345.947 Z"
         id="path31-1" /></clipPath><clipPath
       clipPathUnits="userSpaceOnUse"
       id="clipPath37-3"><path
         d="m 453.284,638.706 h 0.02 v -0.11 h -0.02 z"
         id="path35-99" /></clipPath><clipPath
       clipPathUnits="userSpaceOnUse"
       id="clipPath77-9"><path
         d="m 488.092,604.554 h 73.915 V 175.783 h -73.915 z"
         id="path75-7" /></clipPath><clipPath
       clipPathUnits="userSpaceOnUse"
       id="clipPath129-6"><path
         d="m 333.017,915.164 h 158.73 v -335.03 h -158.73 z"
         id="path127-4" /></clipPath><clipPath
       clipPathUnits="userSpaceOnUse"
       id="clipPath145-6"><path
         d="M 546.469,921.894 H 708.597 V 580.134 H 546.469 Z"
         id="path143-0" /></clipPath><clipPath
       clipPathUnits="userSpaceOnUse"
       id="clipPath161-0"><path
         d="m 504.935,609.706 h 54.902 V 175.783 h -54.902 z"
         id="path159-5" /></clipPath><clipPath
       id="clip-path-5"><circle
         cx="400"
         cy="400"
         r="400"
         style="fill:none"
         id="circle1028-3" /></clipPath><filter
       id="a-0"
       color-interpolation-filters="sRGB"
       x="-0.029732194"
       y="-0.076233707"
       width="1.059422"
       height="1.1526316"><feGaussianBlur
         stdDeviation="12.898788"
         id="feGaussianBlur1162-0" /></filter><clipPath
       clipPathUnits="userSpaceOnUse"
       id="clipPath25-6"><path
         d="M 0,1080 H 1080 V 0 H 0 Z"
         id="path23-83" /></clipPath><clipPath
       clipPathUnits="userSpaceOnUse"
       id="clipPath33-2"><path
         d="M 345.947,904.217 H 746.983 V 154.45 H 345.947 Z"
         id="path31-5" /></clipPath><clipPath
       clipPathUnits="userSpaceOnUse"
       id="clipPath37-4"><path
         d="m 453.284,638.706 h 0.02 v -0.11 h -0.02 z"
         id="path35-4" /></clipPath><clipPath
       clipPathUnits="userSpaceOnUse"
       id="clipPath77-3"><path
         d="m 488.092,604.554 h 73.915 V 175.783 h -73.915 z"
         id="path75-71" /></clipPath><clipPath
       clipPathUnits="userSpaceOnUse"
       id="clipPath129-5"><path
         d="m 333.017,915.164 h 158.73 v -335.03 h -158.73 z"
         id="path127-3" /></clipPath><clipPath
       clipPathUnits="userSpaceOnUse"
       id="clipPath145-5"><path
         d="M 546.469,921.894 H 708.597 V 580.134 H 546.469 Z"
         id="path143-1" /></clipPath><clipPath
       clipPathUnits="userSpaceOnUse"
       id="clipPath161-5"><path
         d="m 504.935,609.706 h 54.902 V 175.783 h -54.902 z"
         id="path159-9" /></clipPath><clipPath
       id="clip-path-70"><circle
         cx="400"
         cy="400"
         r="400"
         style="fill:none"
         id="circle1028-4" /></clipPath><filter
       id="a-6"
       color-interpolation-filters="sRGB"
       x="-0.029732194"
       y="-0.076233707"
       width="1.059422"
       height="1.1526316"><feGaussianBlur
         stdDeviation="12.898788"
         id="feGaussianBlur1162-2" /></filter></defs><g
     inkscape:label="Layer 1"
     inkscape:groupmode="layer"
     id="layer1" /><rect
     style="fill:#ffffff;stroke-width:0.241533;-inkscape-stroke:none;stop-color:#000000"
     id="rect878"
     width="0.06478104"
     height="12.664597"
     x="12.473996"
     y="-0.022312585" /><rect
     style="fill:#ffffff;stroke-width:0.274746;-inkscape-stroke:none;stop-color:#000000"
     id="rect878-5"
     width="0.073689058"
     height="14.4061"
     x="17.134722"
     y="-4.5154805"
     transform="rotate(60)" /><rect
     style="fill:#ffffff;stroke-width:0.2753;-inkscape-stroke:none;stop-color:#000000"
     id="rect878-5-8"
     width="0.07383775"
     height="14.43517"
     x="4.6466107"
     y="-31.54995"
     transform="rotate(120)" /><g
     id="g1231"
     transform="matrix(0.20349393,0,0,0.20349393,35.763979,24.354051)"><g
       id="g1077"
       transform="rotate(15,132.50871,-535.35541)"><g
         id="g558"
         transform="matrix(-0.05129631,-0.05129631,-0.05129631,0.05129631,83.713776,21.733668)"
         clip-path="url(#clipPath1018)"><g
           id="g560" /><g
           id="g592"><g
             clip-path="url(#clipPath564)"
             opacity="0.949997"
             id="g590"><g
               transform="translate(639.6494,638.5962)"
               id="g572"><path
                 d="M 0,0 C -0.01,0.07 -0.02,0.11 -0.02,0.11 Z"
                 style="fill:#333333;fill-opacity:1;fill-rule:nonzero;stroke:none"
                 id="path570" /></g><g
               transform="translate(711.4531,808.5981)"
               id="g576"><path
                 d="m 0,0 c -0.007,-0.138 -0.015,-0.275 -0.022,-0.412 -0.048,-0.877 -0.112,-1.75 -0.199,-2.616 -0.003,-0.031 -0.006,-0.063 -0.008,-0.094 -0.094,-0.92 -0.211,-1.832 -0.348,-2.737 -0.017,-0.108 -0.035,-0.215 -0.052,-0.323 -0.126,-0.803 -0.268,-1.601 -0.428,-2.392 -0.022,-0.115 -0.044,-0.23 -0.067,-0.345 -0.184,-0.886 -0.385,-1.766 -0.609,-2.637 -0.005,-0.022 -0.012,-0.044 -0.018,-0.065 -0.213,-0.824 -0.447,-1.64 -0.695,-2.449 -0.042,-0.139 -0.085,-0.278 -0.128,-0.416 -0.527,-1.671 -1.127,-3.308 -1.798,-4.91 -0.055,-0.131 -0.111,-0.262 -0.168,-0.393 -0.315,-0.738 -0.645,-1.468 -0.99,-2.19 -0.028,-0.059 -0.054,-0.118 -0.082,-0.176 -0.382,-0.789 -0.782,-1.568 -1.198,-2.336 -0.049,-0.093 -0.102,-0.184 -0.153,-0.277 -0.37,-0.676 -0.755,-1.344 -1.152,-2.004 -0.068,-0.113 -0.134,-0.227 -0.203,-0.339 -0.453,-0.742 -0.921,-1.474 -1.407,-2.194 -0.008,-0.012 -0.017,-0.025 -0.026,-0.037 -0.463,-0.685 -0.944,-1.357 -1.437,-2.02 -0.094,-0.128 -0.189,-0.256 -0.285,-0.383 -1.02,-1.353 -2.098,-2.659 -3.232,-3.915 -0.11,-0.122 -0.222,-0.241 -0.332,-0.362 -0.498,-0.542 -1.005,-1.075 -1.524,-1.597 -0.085,-0.086 -0.168,-0.174 -0.253,-0.259 -0.593,-0.591 -1.2,-1.169 -1.818,-1.733 -0.11,-0.101 -0.223,-0.199 -0.334,-0.298 -0.517,-0.466 -1.045,-0.921 -1.579,-1.368 -0.15,-0.125 -0.3,-0.252 -0.452,-0.376 -0.636,-0.521 -1.281,-1.031 -1.94,-1.524 -0.076,-0.058 -0.155,-0.112 -0.232,-0.169 -0.58,-0.43 -1.17,-0.847 -1.766,-1.256 -0.202,-0.138 -0.404,-0.274 -0.608,-0.41 -0.561,-0.374 -1.131,-0.739 -1.707,-1.094 -0.132,-0.082 -0.261,-0.166 -0.393,-0.247 -0.669,-0.404 -1.348,-0.792 -2.035,-1.169 -0.247,-0.136 -0.497,-0.268 -0.747,-0.401 -8.023,-4.264 -17.174,-6.689 -26.895,-6.689 -31.69,0 -57.38,25.691 -57.38,57.381 0,26.581 18.067,48.927 42.585,55.454 0.178,0.048 0.355,0.101 0.535,0.147 0.807,0.207 1.623,0.393 2.443,0.565 0.199,0.041 0.401,0.08 0.601,0.12 0.741,0.147 1.486,0.281 2.237,0.399 0.113,0.018 0.227,0.039 0.341,0.056 0.9,0.136 1.808,0.252 2.723,0.346 0.058,0.006 0.117,0.01 0.175,0.016 0.849,0.084 1.703,0.148 2.561,0.194 0.134,0.008 0.267,0.016 0.399,0.022 0.921,0.044 1.848,0.07 2.78,0.07 31.7,0 57.39,-25.69 57.39,-57.389 C 0.07,1.84 0.044,0.918 0,0 m -215.381,-0.636 c -0.014,-0.23 -0.036,-0.456 -0.052,-0.685 -0.063,-0.886 -0.143,-1.766 -0.245,-2.64 -0.034,-0.293 -0.072,-0.584 -0.111,-0.875 -0.111,-0.837 -0.24,-1.667 -0.387,-2.492 -0.046,-0.263 -0.09,-0.526 -0.14,-0.788 -0.187,-0.97 -0.396,-1.932 -0.63,-2.884 -0.023,-0.091 -0.041,-0.184 -0.064,-0.274 -0.277,-1.1 -0.584,-2.187 -0.923,-3.261 -0.004,-0.013 -0.009,-0.026 -0.013,-0.039 -0.32,-1.009 -0.671,-2.003 -1.044,-2.987 -0.078,-0.205 -0.162,-0.408 -0.242,-0.612 -0.316,-0.806 -0.649,-1.604 -1,-2.391 -0.1,-0.223 -0.2,-0.445 -0.302,-0.666 -0.375,-0.814 -0.769,-1.618 -1.181,-2.411 -0.079,-0.151 -0.153,-0.304 -0.233,-0.454 -1.023,-1.927 -2.152,-3.79 -3.381,-5.579 -0.054,-0.08 -0.113,-0.158 -0.168,-0.237 -0.548,-0.79 -1.116,-1.564 -1.702,-2.324 -0.127,-0.163 -0.256,-0.325 -0.384,-0.488 -0.545,-0.692 -1.106,-1.371 -1.683,-2.036 -0.13,-0.15 -0.257,-0.3 -0.388,-0.449 -0.662,-0.749 -1.341,-1.482 -2.041,-2.195 -0.036,-0.037 -0.071,-0.076 -0.107,-0.113 -1.526,-1.547 -3.142,-3.005 -4.834,-4.373 -0.128,-0.102 -0.258,-0.201 -0.386,-0.303 -0.704,-0.558 -1.42,-1.1 -2.15,-1.626 -9.424,-6.785 -20.981,-10.794 -33.48,-10.794 -31.7,0 -57.39,25.691 -57.39,57.381 0,22.972 13.497,42.779 32.99,51.949 0.767,0.362 1.543,0.709 2.328,1.037 0.344,0.143 0.694,0.273 1.041,0.41 0.563,0.223 1.127,0.443 1.699,0.648 0.423,0.151 0.852,0.291 1.279,0.432 0.508,0.169 1.018,0.334 1.532,0.489 0.465,0.14 0.934,0.27 1.404,0.399 0.488,0.133 0.978,0.26 1.472,0.38 0.493,0.12 0.988,0.236 1.486,0.343 0.481,0.104 0.966,0.198 1.451,0.29 0.513,0.097 1.027,0.193 1.545,0.276 0.481,0.077 0.965,0.141 1.45,0.206 0.529,0.071 1.056,0.145 1.59,0.202 0.485,0.051 0.975,0.085 1.463,0.124 0.539,0.044 1.074,0.095 1.616,0.123 0.511,0.027 1.028,0.03 1.542,0.044 0.501,0.012 0.998,0.037 1.502,0.037 16.834,0 31.975,-7.249 42.471,-18.798 9.261,-10.191 14.905,-23.729 14.905,-38.587 0,-1.145 -0.039,-2.281 -0.105,-3.409 M -57.32,95.618 c -7.28,0 -14.37,-0.84 -21.17,-2.43 0,0 -0.08,-0.02 -0.22,-0.06 -0.04,0 -0.08,-0.01 -0.13,-0.029 -0.18,-0.04 -0.43,-0.111 -0.74,-0.191 -1.399,-0.384 -4.039,-1.17 -7.288,-2.423 -0.008,-0.003 -0.015,-0.006 -0.023,-0.009 -0.984,-0.38 -2.023,-0.802 -3.102,-1.27 -0.081,-0.036 -0.161,-0.069 -0.243,-0.105 -0.486,-0.212 -0.978,-0.434 -1.477,-0.665 -0.131,-0.06 -0.263,-0.122 -0.393,-0.184 -0.496,-0.231 -0.994,-0.469 -1.498,-0.719 -0.099,-0.049 -0.199,-0.101 -0.297,-0.151 -0.427,-0.214 -0.857,-0.436 -1.288,-0.663 -0.16,-0.084 -0.318,-0.166 -0.477,-0.252 -0.478,-0.257 -0.957,-0.522 -1.438,-0.796 -0.172,-0.098 -0.345,-0.199 -0.519,-0.299 -0.448,-0.261 -0.897,-0.528 -1.344,-0.803 -0.159,-0.097 -0.316,-0.197 -0.475,-0.297 -0.417,-0.262 -0.832,-0.531 -1.246,-0.805 -0.165,-0.11 -0.329,-0.217 -0.493,-0.328 -0.477,-0.325 -0.952,-0.659 -1.423,-1.002 -0.154,-0.112 -0.306,-0.226 -0.459,-0.34 -0.458,-0.341 -0.913,-0.689 -1.361,-1.047 -0.1,-0.081 -0.199,-0.162 -0.3,-0.244 -0.442,-0.36 -0.878,-0.731 -1.307,-1.108 -0.123,-0.108 -0.247,-0.215 -0.368,-0.325 -0.464,-0.417 -0.919,-0.844 -1.365,-1.282 -0.101,-0.101 -0.201,-0.203 -0.301,-0.304 -0.467,-0.47 -0.927,-0.948 -1.369,-1.442 -0.001,-0.001 -0.002,-0.002 -0.002,-0.002 -10e-4,-0.001 -10e-4,-0.001 -10e-4,-0.001 -0.001,-0.001 -0.002,-0.002 -0.003,-0.003 -11.17,-12.5 -23.67,-33.341 -26.83,-38.841 -2.575,-4.459 -6.655,-10.707 -9.982,-14.364 -0.768,-0.843 -1.494,-1.548 -2.154,-2.061 v -0.001 c -0.001,-10e-4 -0.003,-0.002 -0.004,-0.003 -1.15,-5.821 -1.75,-11.841 -1.75,-18 0,-4.801 0.36,-9.52 1.07,-14.131 v -0.01 c 4.96,-4.02 8.13,-10.16 8.13,-17.029 0,-0.971 -0.06,-1.921 -0.19,-2.861 -0.09,-1.389 -0.19,-3.159 -0.31,-5.259 -1.67,-30.871 -6.39,-133.161 -6.98,-144.94 -0.67,-13.341 -2.67,-29.841 -3.33,-31.671 -0.67,-1.829 -0.34,-3.67 2.83,-5.829 1.017,-0.697 2.555,-1.827 4.518,-3.31 -3.644,-3.388 -11.872,-11.218 -20.565,-19.521 -8.692,8.303 -16.919,16.132 -20.564,19.521 1.964,1.483 3.502,2.613 4.519,3.31 3.17,2.159 3.5,4 2.83,5.829 -0.66,1.83 -2.66,18.33 -3.33,31.671 -0.59,11.779 -5.31,114.069 -6.98,144.94 -0.12,2.1 -0.22,3.87 -0.31,5.259 -0.13,0.94 -0.19,1.89 -0.19,2.861 0,6.869 3.17,13.009 8.13,17.029 v 0.01 c 0.71,4.611 1.07,9.33 1.07,14.131 0,6.159 -0.6,12.179 -1.75,18 -3.52,2.739 -8.97,10.939 -12.14,16.429 -3.16,5.5 -15.66,26.341 -26.83,38.841 -9.6,10.739 -25.56,15.69 -29.86,16.869 -0.31,0.08 -0.56,0.151 -0.74,0.191 -0.05,0.019 -0.09,0.029 -0.13,0.029 -0.14,0.04 -0.22,0.06 -0.22,0.06 -6.8,1.59 -13.89,2.43 -21.17,2.43 -15.418,0 -29.956,-3.762 -42.753,-10.412 0.013,0.009 0.026,0.018 0.039,0.027 -0.159,-0.083 -0.313,-0.172 -0.471,-0.255 -0.617,-0.325 -1.23,-0.656 -1.838,-0.994 -0.258,-0.143 -0.516,-0.286 -0.773,-0.432 -0.767,-0.436 -1.53,-0.879 -2.283,-1.336 -0.126,-0.076 -0.25,-0.155 -0.376,-0.233 -0.681,-0.417 -1.356,-0.844 -2.026,-1.279 -0.265,-0.172 -0.53,-0.347 -0.794,-0.522 -0.554,-0.368 -1.103,-0.742 -1.649,-1.121 -0.227,-0.158 -0.456,-0.313 -0.681,-0.473 -0.715,-0.506 -1.422,-1.023 -2.122,-1.548 -0.243,-0.183 -0.482,-0.37 -0.724,-0.555 -0.497,-0.382 -0.991,-0.768 -1.481,-1.16 -0.268,-0.214 -0.536,-0.428 -0.801,-0.645 -0.588,-0.48 -1.17,-0.967 -1.745,-1.462 -0.241,-0.207 -0.48,-0.416 -0.719,-0.626 -0.525,-0.461 -1.046,-0.926 -1.56,-1.398 -0.271,-0.249 -0.539,-0.499 -0.806,-0.751 -0.428,-0.401 -0.85,-0.807 -1.269,-1.216 -0.245,-0.238 -0.491,-0.474 -0.732,-0.715 -0.593,-0.591 -1.178,-1.19 -1.754,-1.797 -0.252,-0.266 -0.5,-0.536 -0.749,-0.804 -0.374,-0.404 -0.745,-0.81 -1.113,-1.22 -0.265,-0.296 -0.53,-0.592 -0.791,-0.892 -0.414,-0.474 -0.821,-0.953 -1.226,-1.436 -0.327,-0.391 -0.651,-0.785 -0.973,-1.181 -0.371,-0.458 -0.74,-0.919 -1.103,-1.384 -0.258,-0.331 -0.512,-0.666 -0.766,-1 -0.309,-0.408 -0.614,-0.819 -0.916,-1.232 -0.24,-0.327 -0.482,-0.652 -0.717,-0.983 -0.468,-0.656 -0.926,-1.318 -1.377,-1.987 -0.236,-0.349 -0.465,-0.704 -0.696,-1.056 -0.268,-0.41 -0.533,-0.821 -0.794,-1.234 -0.237,-0.374 -0.473,-0.749 -0.704,-1.127 -0.284,-0.465 -0.562,-0.934 -0.838,-1.404 -0.323,-0.548 -0.64,-1.1 -0.952,-1.655 -0.256,-0.459 -0.513,-0.918 -0.763,-1.382 -0.215,-0.4 -0.426,-0.802 -0.636,-1.205 -0.219,-0.421 -0.433,-0.845 -0.645,-1.27 -0.198,-0.394 -0.397,-0.787 -0.589,-1.185 -0.347,-0.718 -0.684,-1.441 -1.013,-2.169 -0.184,-0.408 -0.36,-0.82 -0.539,-1.232 -0.187,-0.431 -0.371,-0.863 -0.552,-1.297 -0.178,-0.427 -0.354,-0.855 -0.525,-1.285 -0.192,-0.483 -0.377,-0.969 -0.561,-1.456 -0.242,-0.637 -0.476,-1.277 -0.703,-1.921 -0.174,-0.49 -0.347,-0.982 -0.512,-1.476 -0.147,-0.438 -0.288,-0.879 -0.428,-1.321 -0.146,-0.458 -0.287,-0.918 -0.426,-1.379 -0.129,-0.428 -0.26,-0.856 -0.382,-1.287 -0.224,-0.783 -0.436,-1.569 -0.639,-2.36 -0.11,-0.43 -0.212,-0.863 -0.316,-1.295 -0.116,-0.483 -0.23,-0.966 -0.339,-1.452 -0.1,-0.445 -0.198,-0.891 -0.291,-1.338 -0.116,-0.557 -0.224,-1.117 -0.33,-1.677 -0.117,-0.616 -0.227,-1.234 -0.331,-1.855 -0.096,-0.571 -0.191,-1.145 -0.276,-1.72 -0.066,-0.445 -0.127,-0.891 -0.187,-1.337 -0.071,-0.525 -0.135,-1.052 -0.197,-1.579 -0.05,-0.425 -0.102,-0.849 -0.146,-1.275 -0.087,-0.852 -0.163,-1.707 -0.227,-2.566 -0.032,-0.416 -0.054,-0.835 -0.08,-1.254 -0.034,-0.556 -0.064,-1.112 -0.089,-1.672 -0.019,-0.438 -0.037,-0.877 -0.05,-1.317 -0.019,-0.657 -0.029,-1.315 -0.035,-1.975 -0.002,-0.27 -0.014,-0.539 -0.014,-0.81 0,-24.544 9.525,-46.868 25.09,-63.474 2.225,-2.374 4.573,-4.631 7.034,-6.76 9.69,-9.721 16.35,-13.341 32.02,-23.5 10.73,-6.971 24.23,-18.831 31.67,-25.621 0.03,-0.02 0.05,-0.05 0.08,-0.069 1.84,-1.571 3.62,-3.221 5.33,-4.951 0.04,-0.03 0.07,-0.06 0.09,-0.08 l 0.06,-0.06 c 0.8,-0.806 1.585,-1.627 2.356,-2.462 11.559,-12.533 19.708,-28.247 22.98,-45.683 0,0 0.01,-0.04 0.02,-0.11 0,-0.03 0.01,-0.08 0.02,-0.13 0.4,-2.15 0.73,-4.32 0.96,-6.52 0.01,-0.09 0.02,-0.18 0.04,-0.27 1.67,-11.44 4.87,-33.66 5.72,-42.04 1.098,-10.789 3.656,-28.476 5.347,-30.624 0.113,-0.145 0.222,-0.221 0.327,-0.221 0.031,0 0.089,0.016 0.127,0.02 0.059,0.007 0.119,0.014 0.193,0.031 0.082,0.017 0.174,0.041 0.274,0.07 0.045,0.013 0.096,0.03 0.145,0.045 2.267,0.71 8.39,3.891 15.391,8.616 0.018,-0.092 0.024,-0.185 0.046,-0.277 0,0 11.441,-77.676 16.72,-113.723 -0.114,-110.839 -0.245,-289.755 0.1,-292.857 0.5,-4.5 3.75,-6.5 5.75,-6.25 2,0.25 1.75,2.5 3,9 0.39,2.009 2.67,15.91 5.88,35.83 3.793,23.527 8.9,55.458 13.753,86.093 2.479,-15.625 5.018,-31.579 7.417,-46.593 6.28,-39.33 11.59,-72.15 12.21,-75.33 1.25,-6.5 1,-8.75 3,-9 2,-0.25 5.25,1.75 5.75,6.25 0.022,0.181 0.041,1.002 0.057,2.368 0.209,16.645 0.186,116.949 0.103,209.851 0,4.061 0,8.101 -0.01,12.12 -0.01,20.641 -0.02,40.71 -0.04,59.181 0,3.14 -0.01,6.239 -0.01,9.29 v 0.02 c 5.27,36.03 16.72,113.75 16.72,113.75 0.021,0.092 0.028,0.185 0.047,0.277 7.977,-5.385 14.845,-8.782 16.129,-8.782 0.015,0 0.031,0.013 0.047,0.016 0.032,0.007 0.065,0.015 0.098,0.035 0.017,0.01 0.033,0.026 0.049,0.039 0.038,0.03 0.077,0.067 0.116,0.114 0.011,0.014 0.022,0.027 0.032,0.041 0.607,0.794 1.319,3.545 2.032,7.26 0,0 -10e-4,0.001 -0.002,0.001 1.291,6.675 2.594,16.42 3.298,23.335 0.85,8.379 4.05,30.599 5.72,42.04 0.02,0.089 0.03,0.179 0.04,0.27 0.23,2.199 0.56,4.369 0.96,6.519 0.01,0.05 0.02,0.1 0.02,0.131 0.01,0.069 0.02,0.109 0.02,0.109 3.49,18.6 12.53,35.241 25.34,48.15 0,0 0.02,0.02 0.06,0.06 0.02,0.02 0.05,0.05 0.09,0.08 1.71,1.73 3.49,3.38 5.33,4.951 0.03,0.019 0.05,0.049 0.08,0.069 7.44,6.79 20.94,18.65 31.67,25.621 15.67,10.159 22.33,13.779 32.02,23.5 19.68,17.029 32.12,42.179 32.12,70.23 0,51.279 -41.57,92.849 -92.85,92.849"
                 style="fill:#333333;fill-opacity:1;fill-rule:nonzero;stroke:none"
                 id="path574" /></g><g
               id="g588"><g
                 id="g578" /><g
                 id="g586"><g
                   clip-path="url(#clipPath568)"
                   opacity="0.160004"
                   id="g584"><g
                     transform="translate(453.3047,638.7061)"
                     id="g582"><path
                       d="M 0,0 C 0,0 -0.01,-0.04 -0.02,-0.11 Z"
                       style="fill:#333333;fill-opacity:1;fill-rule:nonzero;stroke:none"
                       id="path580" /></g></g></g></g></g></g></g><g
         id="g594"
         transform="matrix(-0.05129631,-0.05129631,-0.05129631,0.05129631,30.023924,19.320089)"
         clip-path="url(#clipPath1014)"><path
           d="M 0,0 C 0,-7.48 -6.069,-13.551 -13.549,-13.551 -21.03,-13.551 -27.1,-7.48 -27.1,0 c 0,7.479 6.07,13.539 13.551,13.539 C -6.069,13.539 0,7.479 0,0 m 15.221,-105.53 c 0,4.059 0,8.099 -0.01,12.12 -0.011,20.639 -0.021,40.71 -0.04,59.18 0,3.139 -0.011,6.24 -0.011,9.29 v 0.019 c -0.05,49.95 -0.099,86.081 -0.099,86.081 0,0 -9.901,9.5 -20.971,20.09 -1.779,1.7 -3.59,3.43 -5.389,5.149 -0.671,0.65 -1.35,1.29 -2.02,1.931 -10.841,10.359 -20.971,19.989 -22.37,21.17 -1.581,1.33 -8.031,-0.771 -13.71,-4.75 -2.641,-1.851 -5.121,-4.11 -6.861,-6.621 -0.11,-0.15 -0.21,-0.299 -0.3,-0.449 -0.489,-0.75 -0.91,-1.52 -1.25,-2.301 -0.069,-0.159 -0.129,-0.319 -0.19,-0.48 -0.75,-1.94 -1,-3.989 -0.52,-6.069 0,0 11.44,-77.66 16.721,-113.711 1.519,-10.42 2.529,-17.359 2.61,-17.96 0.239,-1.849 3.049,-11.779 7.659,-36.75 1.35,-7.29 2.85,-15.859 4.481,-25.889 0.809,-4.97 1.65,-10.31 2.529,-16.02 2.811,-18.36 6.9,-44.45 11.201,-71.561 2.48,-15.629 5.02,-31.589 7.42,-46.61 C 0.381,-279 5.69,-311.82 6.311,-315 c 1.25,-6.5 1,-8.75 3,-9 2,-0.25 5.25,1.75 5.75,6.25 0.04,0.329 0.07,2.71 0.089,6.829 v 0.021 c 0.17,25.67 0.151,118.74 0.071,205.37"
           style="fill:#e0e0e0;fill-opacity:1;fill-rule:nonzero;stroke:none"
           id="path596" /></g><g
         id="g598"
         transform="matrix(-0.05129631,-0.05129631,-0.05129631,0.05129631,30.023924,19.320089)"
         clip-path="url(#clipPath1010)"><path
           d="M 0,0 C 0,-7.48 -6.069,-13.551 -13.549,-13.551 -21.03,-13.551 -27.1,-7.48 -27.1,0 c 0,7.479 6.07,13.539 13.551,13.539 C -6.069,13.539 0,7.479 0,0 Z m 15.221,-105.53 c 0,4.059 0,8.099 -0.01,12.12 -0.011,20.639 -0.021,40.71 -0.04,59.18 0,3.139 -0.011,6.24 -0.011,9.29 v 0.019 c -0.05,49.95 -0.099,86.081 -0.099,86.081 0,0 -9.901,9.5 -20.971,20.09 -1.779,1.7 -3.59,3.43 -5.389,5.149 -0.671,0.65 -1.35,1.29 -2.02,1.931 -10.841,10.359 -20.971,19.989 -22.37,21.17 -1.581,1.33 -8.031,-0.771 -13.71,-4.75 -2.641,-1.851 -5.121,-4.11 -6.861,-6.621 -0.11,-0.15 -0.21,-0.299 -0.3,-0.449 -0.489,-0.75 -0.91,-1.52 -1.25,-2.301 -0.069,-0.159 -0.129,-0.319 -0.19,-0.48 -0.75,-1.94 -1,-3.989 -0.52,-6.069 0,0 11.44,-77.66 16.721,-113.711 1.519,-10.42 2.529,-17.359 2.61,-17.96 0.239,-1.849 3.049,-11.779 7.659,-36.75 1.35,-7.29 2.85,-15.859 4.481,-25.889 0.809,-4.97 1.65,-10.31 2.529,-16.02 2.811,-18.36 6.9,-44.45 11.201,-71.561 2.48,-15.629 5.02,-31.589 7.42,-46.61 C 0.381,-279 5.69,-311.82 6.311,-315 c 1.25,-6.5 1,-8.75 3,-9 2,-0.25 5.25,1.75 5.75,6.25 0.04,0.329 0.07,2.71 0.089,6.829 v 0.021 c 0.17,25.67 0.151,118.74 0.071,205.37 z"
           style="fill:none;stroke:#333333;stroke-width:5;stroke-linecap:butt;stroke-linejoin:miter;stroke-miterlimit:10;stroke-dasharray:none;stroke-opacity:1"
           id="path600" /></g><g
         id="g602"
         transform="matrix(-0.05129631,-0.05129631,-0.05129631,0.05129631,83.713776,21.733668)"
         clip-path="url(#clipPath1006)"><g
           id="g604" /><g
           id="g616"><g
             clip-path="url(#clipPath608)"
             opacity="0.160004"
             id="g614"><g
               transform="translate(562.0068,188.9043)"
               id="g612"><path
                 d="m 0,0 v -0.021 c -0.02,-4.119 -0.05,-6.5 -0.09,-6.829 -0.5,-4.5 -3.75,-6.5 -5.75,-6.25 -2,0.25 -1.75,2.5 -3,9 -0.62,3.18 -5.93,36 -12.21,75.329 -2.4,15.021 -4.94,30.981 -7.42,46.611 -4.3,27.11 -8.39,53.2 -11.2,71.56 -0.88,5.71 -1.72,11.05 -2.53,16.02 -7.23,44.37 -11.83,60.25 -12.14,62.64 -0.33,2.669 -19.33,131.67 -19.33,131.67 -1.41,6.15 3.48,11.97 9.12,15.92 -1.16,-2.3 -1.64,-4.77 -1.06,-7.29 0,0 19,-129 19.33,-131.671 0.31,-2.389 4.91,-18.269 12.14,-62.639 0.81,-4.97 1.65,-10.31 2.53,-16.02 2.81,-18.36 6.9,-44.45 11.2,-71.56 2.48,-15.63 5.02,-31.59 7.42,-46.61 C -6.71,40.53 -1.4,7.71 -0.78,4.53 -0.43,2.7 -0.189,1.21 0,0"
                 style="fill:#333333;fill-opacity:1;fill-rule:nonzero;stroke:none"
                 id="path610" /></g></g></g></g><g
         id="g618"
         transform="matrix(-0.05129631,-0.05129631,-0.05129631,0.05129631,31.414059,19.320012)"
         clip-path="url(#clipPath1002)"><path
           d="m 0,0 c -7.48,0 -13.55,6.07 -13.55,13.551 0,7.479 6.07,13.539 13.55,13.539 7.48,0 13.549,-6.06 13.549,-13.539 C 13.549,6.07 7.48,0 0,0 m 26.53,123.081 c -0.231,0.059 -0.46,0.109 -0.67,0.159 -0.311,0.071 -0.61,0.12 -0.89,0.15 -0.04,0.01 -0.07,0.01 -0.11,0.01 -0.16,0.02 -0.311,0.04 -0.46,0.04 -0.811,0.04 -1.441,-0.08 -1.8,-0.39 C 21.19,121.86 11.07,112.24 0.23,101.88 -13.39,88.87 -28.15,74.71 -28.15,74.71 c 0,0 -0.01,-8.51 -0.03,-22.989 -0.02,-15.341 -0.05,-37.37 -0.07,-63.051 -0.11,-110.84 -0.24,-289.77 0.1,-292.869 0.5,-4.5 3.75,-6.5 5.75,-6.25 2,0.25 1.75,2.5 3,9 0.1,0.559 0.36,2.059 0.75,4.38 0.09,0.509 0.18,1.069 0.28,1.67 0.14,0.859 0.29,1.79 0.46,2.809 1.06,6.351 2.57,15.7 4.39,26.97 3.79,23.53 8.9,55.471 13.75,86.11 1.62,10.2 3.21,20.26 4.71,29.821 2.49,15.83 4.74,30.29 6.49,41.74 8.67,56.659 14.33,76 14.67,78.659 0.08,0.601 1.09,7.52 2.609,17.9 v 0.02 c 5.271,36.03 16.721,113.75 16.721,113.75 2.26,9.83 -11.591,18.82 -18.9,20.701"
           style="fill:#e0e0e0;fill-opacity:1;fill-rule:nonzero;stroke:none"
           id="path620" /></g><g
         id="g622"
         transform="matrix(-0.05129631,-0.05129631,-0.05129631,0.05129631,31.414059,19.320012)"
         clip-path="url(#clipPath998)"><path
           d="m 0,0 c -7.48,0 -13.55,6.07 -13.55,13.551 0,7.479 6.07,13.539 13.55,13.539 7.48,0 13.549,-6.06 13.549,-13.539 C 13.549,6.07 7.48,0 0,0 Z m 26.53,123.081 c -0.231,0.059 -0.46,0.109 -0.67,0.159 -0.311,0.071 -0.61,0.12 -0.89,0.15 -0.04,0.01 -0.07,0.01 -0.11,0.01 -0.16,0.02 -0.311,0.04 -0.46,0.04 -0.811,0.04 -1.441,-0.08 -1.8,-0.39 C 21.19,121.86 11.07,112.24 0.23,101.88 -13.39,88.87 -28.15,74.71 -28.15,74.71 c 0,0 -0.01,-8.51 -0.03,-22.989 -0.02,-15.341 -0.05,-37.37 -0.07,-63.051 -0.11,-110.84 -0.24,-289.77 0.1,-292.869 0.5,-4.5 3.75,-6.5 5.75,-6.25 2,0.25 1.75,2.5 3,9 0.1,0.559 0.36,2.059 0.75,4.38 0.09,0.509 0.18,1.069 0.28,1.67 0.14,0.859 0.29,1.79 0.46,2.809 1.06,6.351 2.57,15.7 4.39,26.97 3.79,23.53 8.9,55.471 13.75,86.11 1.62,10.2 3.21,20.26 4.71,29.821 2.49,15.83 4.74,30.29 6.49,41.74 8.67,56.659 14.33,76 14.67,78.659 0.08,0.601 1.09,7.52 2.609,17.9 v 0.02 c 5.271,36.03 16.721,113.75 16.721,113.75 2.26,9.83 -11.591,18.82 -18.9,20.701 z"
           style="fill:none;stroke:#333333;stroke-width:5;stroke-linecap:butt;stroke-linejoin:miter;stroke-miterlimit:10;stroke-dasharray:none;stroke-opacity:1"
           id="path624" /></g><g
         id="g626"
         transform="matrix(-0.05129631,-0.05129631,-0.05129631,0.05129631,4.9929711,30.287328)"
         clip-path="url(#clipPath994)"><path
           d="M 0,0 -0.01,0.01"
           style="fill:none;stroke:#ff0000;stroke-width:5;stroke-linecap:butt;stroke-linejoin:miter;stroke-miterlimit:10;stroke-dasharray:none;stroke-opacity:1"
           id="path628" /></g><g
         id="g630"
         transform="matrix(-0.05129631,-0.05129631,-0.05129631,0.05129631,22.097115,39.659097)"
         clip-path="url(#clipPath990)"><path
           d="m 0,0 c -31.7,0 -57.39,25.69 -57.39,57.38 0,31.7 25.69,57.39 57.39,57.39 31.69,0 57.38,-25.69 57.38,-57.39 C 57.38,25.69 31.69,0 0,0 m 94.45,-158.52 c -0.66,1.83 -2.66,18.33 -3.33,31.67 -0.59,11.78 -5.31,114.07 -6.98,144.94 -0.12,2.1 -0.22,3.87 -0.31,5.26 -0.13,0.94 -0.19,1.89 -0.19,2.86 0,6.87 3.17,13.01 8.13,17.03 v 0.01 c 0.71,4.61 1.07,9.33 1.07,14.13 0,6.16 -0.6,12.18 -1.75,18 -3.52,2.74 -8.97,10.94 -12.14,16.43 -3.16,5.5 -15.66,26.34 -26.83,38.84 -9.6,10.74 -25.56,15.69 -29.86,16.87 -0.31,0.08 -0.56,0.15 -0.74,0.19 -0.05,0.02 -0.09,0.03 -0.13,0.03 -0.14,0.04 -0.22,0.06 -0.22,0.06 -6.8,1.59 -13.89,2.43 -21.17,2.43 -51.28,0 -92.85,-41.57 -92.85,-92.85 0,-28.05 12.44,-53.2 32.12,-70.23 9.69,-9.72 16.35,-13.34 32.02,-23.5 10.73,-6.97 24.23,-18.83 31.67,-25.62 0.03,-0.02 0.05,-0.05 0.08,-0.07 1.84,-1.57 3.62,-3.22 5.33,-4.95 0.04,-0.03 0.07,-0.06 0.09,-0.08 l 0.06,-0.06 c 12.81,-12.91 21.85,-29.55 25.34,-48.15 0,0 0.01,-0.04 0.02,-0.11 0,-0.03 0.01,-0.08 0.02,-0.13 0.4,-2.15 0.73,-4.32 0.96,-6.52 0.01,-0.09 0.02,-0.18 0.04,-0.27 1.67,-11.44 4.87,-33.66 5.72,-42.04 1.17,-11.5 4,-30.84 5.67,-30.84 1.66,0 12.66,5.67 23.33,14 10.67,8.34 18.83,14.67 22,16.84 3.17,2.16 3.5,4 2.83,5.83"
           style="fill:#e75d39;fill-opacity:1;fill-rule:nonzero;stroke:none"
           id="path632" /></g><g
         id="g634"
         transform="matrix(-0.05129631,-0.05129631,-0.05129631,0.05129631,22.097115,39.659097)"
         clip-path="url(#clipPath986)"><path
           d="m 0,0 c -31.7,0 -57.39,25.69 -57.39,57.38 0,31.7 25.69,57.39 57.39,57.39 31.69,0 57.38,-25.69 57.38,-57.39 C 57.38,25.69 31.69,0 0,0 Z m 94.45,-158.52 c -0.66,1.83 -2.66,18.33 -3.33,31.67 -0.59,11.78 -5.31,114.07 -6.98,144.94 -0.12,2.1 -0.22,3.87 -0.31,5.26 -0.13,0.94 -0.19,1.89 -0.19,2.86 0,6.87 3.17,13.01 8.13,17.03 v 0.01 c 0.71,4.61 1.07,9.33 1.07,14.13 0,6.16 -0.6,12.18 -1.75,18 -3.52,2.74 -8.97,10.94 -12.14,16.43 -3.16,5.5 -15.66,26.34 -26.83,38.84 -9.6,10.74 -25.56,15.69 -29.86,16.87 -0.31,0.08 -0.56,0.15 -0.74,0.19 -0.05,0.02 -0.09,0.03 -0.13,0.03 -0.14,0.04 -0.22,0.06 -0.22,0.06 -6.8,1.59 -13.89,2.43 -21.17,2.43 -51.28,0 -92.85,-41.57 -92.85,-92.85 0,-28.05 12.44,-53.2 32.12,-70.23 9.69,-9.72 16.35,-13.34 32.02,-23.5 10.73,-6.97 24.23,-18.83 31.67,-25.62 0.03,-0.02 0.05,-0.05 0.08,-0.07 1.84,-1.57 3.62,-3.22 5.33,-4.95 0.04,-0.03 0.07,-0.06 0.09,-0.08 l 0.06,-0.06 c 12.81,-12.91 21.85,-29.55 25.34,-48.15 0,0 0.01,-0.04 0.02,-0.11 0,-0.03 0.01,-0.08 0.02,-0.13 0.4,-2.15 0.73,-4.32 0.96,-6.52 0.01,-0.09 0.02,-0.18 0.04,-0.27 1.67,-11.44 4.87,-33.66 5.72,-42.04 1.17,-11.5 4,-30.84 5.67,-30.84 1.66,0 12.66,5.67 23.33,14 10.67,8.34 18.83,14.67 22,16.84 3.17,2.16 3.5,4 2.83,5.83 z"
           style="fill:none;stroke:#333333;stroke-width:5;stroke-linecap:butt;stroke-linejoin:miter;stroke-miterlimit:10;stroke-dasharray:none;stroke-opacity:1"
           id="path636" /></g><g
         id="g638"
         transform="matrix(-0.05129631,-0.05129631,-0.05129631,0.05129631,17.708824,23.443907)"
         clip-path="url(#clipPath982)"><path
           d="M 0,0 C 0,0 0.011,-0.04 0.021,-0.11"
           style="fill:none;stroke:#ff0000;stroke-width:5;stroke-linecap:butt;stroke-linejoin:miter;stroke-miterlimit:10;stroke-dasharray:none;stroke-opacity:1"
           id="path640" /></g><g
         id="g642"
         transform="matrix(-0.05129631,-0.05129631,-0.05129631,0.05129631,11.051378,34.500114)"
         clip-path="url(#clipPath978)"><path
           d="m 0,0 c 0,31.7 25.689,57.39 57.38,57.39 31.7,0 57.39,-25.69 57.39,-57.39 0,-31.69 -25.69,-57.38 -57.39,-57.38 C 25.689,-57.38 0,-31.69 0,0 m -34.24,-221.73 c 3.17,-2.17 11.33,-8.5 22,-16.84 10.67,-8.33 21.67,-14 23.33,-14 1.67,0 4.5,19.34 5.67,30.84 0.849,8.38 4.05,30.6 5.719,42.04 0.021,0.09 0.031,0.18 0.041,0.27 0.23,2.2 0.56,4.37 0.959,6.52 0.01,0.05 0.021,0.1 0.021,0.13 0.01,0.07 0.02,0.11 0.02,0.11 3.49,18.6 12.53,35.24 25.339,48.15 0,0 0.021,0.02 0.061,0.06 0.019,0.02 0.05,0.05 0.09,0.08 1.71,1.73 3.49,3.38 5.33,4.95 0.03,0.02 0.05,0.05 0.08,0.07 7.439,6.79 20.939,18.65 31.67,25.62 15.67,10.16 22.33,13.78 32.019,23.5 19.681,17.03 32.12,42.18 32.12,70.23 0,51.28 -41.57,92.85 -92.849,92.85 -7.28,0 -14.37,-0.84 -21.17,-2.43 0,0 -0.08,-0.02 -0.221,-0.06 -0.04,0 -0.08,-0.01 -0.13,-0.03 C 35.68,90.29 35.43,90.22 35.12,90.14 30.819,88.96 14.859,84.01 5.26,73.27 -5.91,60.77 -18.41,39.93 -21.57,34.43 -24.74,28.94 -30.19,20.74 -33.71,18 -34.86,12.18 -35.46,6.16 -35.46,0 c 0,-4.8 0.359,-9.52 1.069,-14.13 v -0.01 c 4.96,-4.02 8.13,-10.16 8.13,-17.03 0,-0.97 -0.059,-1.92 -0.189,-2.86 -0.09,-1.39 -0.191,-3.16 -0.311,-5.26 -1.67,-30.87 -6.389,-133.16 -6.979,-144.94 -0.67,-13.34 -2.67,-29.84 -3.33,-31.67 -0.67,-1.83 -0.34,-3.67 2.83,-5.83"
           style="fill:#e75d39;fill-opacity:1;fill-rule:nonzero;stroke:none"
           id="path644" /></g><g
         id="g646"
         transform="matrix(-0.05129631,-0.05129631,-0.05129631,0.05129631,11.051378,34.500114)"
         clip-path="url(#clipPath974)"><path
           d="m 0,0 c 0,31.7 25.689,57.39 57.38,57.39 31.7,0 57.39,-25.69 57.39,-57.39 0,-31.69 -25.69,-57.38 -57.39,-57.38 C 25.689,-57.38 0,-31.69 0,0 Z m -34.24,-221.73 c 3.17,-2.17 11.33,-8.5 22,-16.84 10.67,-8.33 21.67,-14 23.33,-14 1.67,0 4.5,19.34 5.67,30.84 0.849,8.38 4.05,30.6 5.719,42.04 0.021,0.09 0.031,0.18 0.041,0.27 0.23,2.2 0.56,4.37 0.959,6.52 0.01,0.05 0.021,0.1 0.021,0.13 0.01,0.07 0.02,0.11 0.02,0.11 3.49,18.6 12.53,35.24 25.339,48.15 0,0 0.021,0.02 0.061,0.06 0.019,0.02 0.05,0.05 0.09,0.08 1.71,1.73 3.49,3.38 5.33,4.95 0.03,0.02 0.05,0.05 0.08,0.07 7.439,6.79 20.939,18.65 31.67,25.62 15.67,10.16 22.33,13.78 32.019,23.5 19.681,17.03 32.12,42.18 32.12,70.23 0,51.28 -41.57,92.85 -92.849,92.85 -7.28,0 -14.37,-0.84 -21.17,-2.43 0,0 -0.08,-0.02 -0.221,-0.06 -0.04,0 -0.08,-0.01 -0.13,-0.03 C 35.68,90.29 35.43,90.22 35.12,90.14 30.819,88.96 14.859,84.01 5.26,73.27 -5.91,60.77 -18.41,39.93 -21.57,34.43 -24.74,28.94 -30.19,20.74 -33.71,18 -34.86,12.18 -35.46,6.16 -35.46,0 c 0,-4.8 0.359,-9.52 1.069,-14.13 v -0.01 c 4.96,-4.02 8.13,-10.16 8.13,-17.03 0,-0.97 -0.059,-1.92 -0.189,-2.86 -0.09,-1.39 -0.191,-3.16 -0.311,-5.26 -1.67,-30.87 -6.389,-133.16 -6.979,-144.94 -0.67,-13.34 -2.67,-29.84 -3.33,-31.67 -0.67,-1.83 -0.34,-3.67 2.83,-5.83 z"
           style="fill:none;stroke:#333333;stroke-width:5;stroke-linecap:butt;stroke-linejoin:miter;stroke-miterlimit:10;stroke-dasharray:none;stroke-opacity:1"
           id="path648" /></g><g
         id="g650"
         transform="matrix(-0.05129631,-0.05129631,-0.05129631,0.05129631,27.273308,32.997066)"
         clip-path="url(#clipPath970)"><path
           d="M 0,0 C 0.01,0.07 0.02,0.11 0.02,0.11"
           style="fill:none;stroke:#ff0000;stroke-width:5;stroke-linecap:butt;stroke-linejoin:miter;stroke-miterlimit:10;stroke-dasharray:none;stroke-opacity:1"
           id="path652" /></g><g
         id="g654"
         transform="matrix(-0.05129631,-0.05129631,-0.05129631,0.05129631,83.713776,21.273977)"
         clip-path="url(#clipPath966)"><g
           id="g656" /><g
           id="g668"><g
             clip-path="url(#clipPath660)"
             opacity="0.389999"
             id="g666"><g
               transform="translate(434.3667,895.0942)"
               id="g664"><path
                 d="M 0,0 C -12.37,0 -23.83,-3.91 -33.2,-10.58 -25.72,-7 -17.34,-5 -8.5,-5 c 31.69,0 57.38,-25.69 57.38,-57.39 0,-19.31 -9.54,-36.39 -24.16,-46.79 19.32,9.23 32.66,28.95 32.66,51.79 C 57.38,-25.69 31.69,0 0,0 m 46.29,-309.96 c -1.67,0 -4.5,19.34 -5.67,30.84 -0.85,8.38 -4.05,30.6 -5.72,42.04 -0.02,0.09 -0.03,0.18 -0.04,0.27 -0.23,2.2 -0.56,4.37 -0.96,6.52 -0.01,0.05 -0.02,0.1 -0.02,0.13 -0.01,0.07 -0.02,0.11 -0.02,0.11 -3.49,18.6 -12.53,35.24 -25.34,48.15 l -0.06,0.06 c -0.02,0.02 -0.05,0.05 -0.09,0.08 -1.71,1.73 -3.49,3.38 -5.33,4.95 -0.03,0.02 -0.05,0.05 -0.08,0.07 -7.44,6.79 -20.94,18.65 -31.67,25.62 -15.67,10.16 -22.33,13.78 -32.02,23.5 -19.68,17.03 -32.12,42.18 -32.12,70.23 0,32.35 16.54,60.84 41.64,77.46 -29.79,-15.46 -50.14,-46.58 -50.14,-82.46 0,-28.05 12.44,-53.2 32.12,-70.23 9.69,-9.72 16.35,-13.34 32.02,-23.5 10.73,-6.97 24.23,-18.83 31.67,-25.62 0.03,-0.02 0.05,-0.05 0.08,-0.07 1.84,-1.57 3.62,-3.22 5.33,-4.95 0.04,-0.03 0.07,-0.06 0.09,-0.08 l 0.06,-0.06 c 12.81,-12.91 21.85,-29.55 25.34,-48.15 0,0 0.01,-0.04 0.02,-0.11 0,-0.03 0.01,-0.08 0.02,-0.13 0.4,-2.15 0.73,-4.32 0.96,-6.52 0.01,-0.09 0.02,-0.18 0.04,-0.27 1.67,-11.44 4.87,-33.66 5.72,-42.04 1.17,-11.5 4,-30.84 5.67,-30.84 1.16,0 6.84,2.75 13.8,7.24 -2.74,-1.44 -4.68,-2.24 -5.3,-2.24"
                 style="fill:#b53921;fill-opacity:1;fill-rule:nonzero;stroke:none"
                 id="path662" /></g></g></g></g><g
         id="g670"
         transform="matrix(-0.05129631,-0.05129631,-0.05129631,0.05129631,83.713776,21.733668)"
         clip-path="url(#clipPath962)"><g
           id="g672" /><g
           id="g684"><g
             clip-path="url(#clipPath676)"
             opacity="0.389999"
             id="g682"><g
               transform="translate(589.0869,905.9741)"
               id="g680"><path
                 d="m 0,0 c -11.17,-12.5 -23.67,-33.34 -26.83,-38.84 -3.17,-5.49 -8.62,-13.69 -12.14,-16.43 -1.15,-5.82 -1.75,-11.84 -1.75,-18 0,-4.8 0.36,-9.52 1.07,-14.13 v -0.01 c 4.96,-4.02 8.13,-10.16 8.13,-17.03 0,-0.97 -0.06,-1.92 -0.19,-2.86 -0.09,-1.39 -0.19,-3.16 -0.31,-5.26 -1.67,-30.87 -6.39,-133.16 -6.98,-144.94 -0.67,-13.34 -2.67,-29.84 -3.33,-31.67 -0.67,-1.83 -0.34,-3.67 2.83,-5.83 3.17,-2.17 11.33,-8.5 22,-16.84 10.67,-8.33 21.67,-14 23.33,-14 0.67,0 1.52,3.07 2.37,7.5 -4.38,2.47 -10.09,6.12 -15.7,10.5 -10.67,8.34 -18.83,14.67 -22,16.84 -3.17,2.16 -3.5,4 -2.83,5.83 0.66,1.83 2.66,18.33 3.33,31.67 0.59,11.78 5.31,114.07 6.98,144.94 0.12,2.1 0.22,3.87 0.31,5.26 0.13,0.94 0.19,1.89 0.19,2.86 0,6.87 -3.17,13.01 -8.13,17.03 v 0.01 c -0.71,4.61 -1.07,9.33 -1.07,14.13 0,6.16 0.6,12.18 1.75,18 3.52,2.74 8.97,10.94 12.14,16.43 C -13.67,-29.34 -1.17,-8.5 10,4 14.75,9.31 21.05,13.2 26.73,15.92 20.3,13.83 7.96,8.91 0,0 m 62.12,-11.88 c -9.45,0 -18.36,-2.28 -26.21,-6.33 5.14,1.52 10.58,2.33 16.21,2.33 31.7,0 57.39,-25.69 57.39,-57.39 0,-22.24 -12.65,-41.53 -31.16,-51.05 23.8,7 41.16,29 41.16,55.05 0,31.7 -25.69,57.39 -57.39,57.39"
                 style="fill:#b53921;fill-opacity:1;fill-rule:nonzero;stroke:none"
                 id="path678" /></g></g></g></g><g
         id="g686"
         transform="matrix(-0.05129631,-0.05129631,-0.05129631,0.05129631,83.713776,21.733668)"
         clip-path="url(#clipPath958)"><g
           id="g688" /><g
           id="g700"><g
             clip-path="url(#clipPath692)"
             opacity="0.160004"
             id="g698"><g
               transform="translate(515.4868,566.9644)"
               id="g696"><path
                 d="m 0,0 c 0,0 -0.44,-326.16 -0.09,-373.3 -0.8,-4.88 -1.33,-7.991 -1.49,-8.86 -1.25,-6.5 -1,-8.75 -3,-9 -2,-0.25 -5.25,1.75 -5.75,6.25 -0.5,4.5 0,378.91 0,378.91 0,0 47.58,45.67 50.75,48.34 0.64,0.54 2.07,0.52 3.93,0.03 C 30.59,29.36 0,0 0,0"
                 style="fill:#333333;fill-opacity:1;fill-rule:nonzero;stroke:none"
                 id="path694" /></g></g></g></g></g></g><g
     id="g1479"
     transform="matrix(0.76251976,0,0,0.76251976,1.0076653,1.9329007)"><g
       inkscape:label="Layer 1"
       id="layer1-0" /><g
       transform="matrix(-0.01172279,0,0,0.01172279,10.244515,1.9906167)"
       id="g1197"><path
         d="m 67.36,-158.21 c -17.28,3.0713 -35.335,14.069 -33.043,33.612 -7.4476,16.048 -14.719,32.185 -22.008,48.221 -10.712,18.638 -22.285,37.853 -22.893,60.015 -2.7339,25.779 -22.356,47.703 -19.573,74.561 0.0089,29.32 0.0031,58.647 0,87.968 -0.73744,1.6377 -1.364,3.3346 -1.8656,5.0592 -4.8611,23.544 -4.8059,48.111 -13.565,70.861 -9.509,10.334 -12.397,24.651 -14.103,38.134 -2.9869,18.283 -4.6517,36.557 -6.419,54.988 -4.1718,20.531 -11.494,40.303 -15.368,60.964 -7.9464,18.272 1.9671,42.039 -12.364,57.834 -6.647,22.752 -26.471,40.452 -26.877,65.106 0.47344,8.4494 5.9492,13.456 12.87,17.676 -1.5838,4.5691 -2.9072,9.3053 -4.7747,12.901 -6.7401,17.088 -4.201,35.74 -4.8379,53.596 -0.20864,3.554 0.37682,6.3572 1.5494,8.6323 3.0883,13.072 12.125,30.368 22.45,44.047 27.065,22.162 32.185,57.948 38.925,90.118 2.0083,15.51 6.2053,29.333 11.352,42.245 0.67248,2.7496 1.6343,5.3311 3.162,7.5889 7.2857,16.697 15.864,32.053 22.988,47.81 21.133,29.064 67.652,13.904 87.462,44.806 19.45,22.603 47.501,42.604 78.861,38.261 63.854,13.424 129.29,18.064 193.14,30.703 55.037,1.2541 110.11,0.14864 165.15,0.50593 6.9509,12.076 45.529,10.311 73.454,4.6482 4.6765,1.481 9.0768,2.7235 12.648,3.4782 4.5252,2.4839 9.8806,2.5501 17.012,-2.1818 17.754,-17.659 40.073,-27.397 64.822,-30.83 20.893,-6.0125 43.178,-8.9672 62.735,-17.107 5.1979,-24.345 -4.0423,-49.6 -8.8854,-73.77 -11.101,-23.059 -11.865,-49.234 -15.747,-74.244 -2.3098,-24.376 -9.3361,-47.929 -12.553,-71.968 0.25094,-15.354 4.9888,-42.315 0.3162,-55.62 0.0466,-0.32916 0.0498,-0.67136 0.0632,-1.0434 0.49186,-6.4366 0.0114,-12.809 -0.79056,-19.162 0.10443,-4.3223 -0.0139,-9.0415 -0.41101,-14.229 -1.1,-3.6242 -2.0801,-7.2901 -2.9406,-10.972 -0.0911,-1.1575 -0.13862,-2.3176 -0.18982,-3.4781 -1.6422,-10.732 -1.9537,-21.624 -1.7707,-32.411 -0.9818,-10.236 -2.199,-20.53 -4.7746,-30.482 -0.33988,-14.689 -0.38784,-29.38 -1.0118,-43.826 -1.7982,-32.502 9.6891,-78.424 -27.225,-94.513 -34.795,-25.788 -17.531,-77.824 -21.565,-115.22 6.0825,-25.522 -0.93181,-48.648 -15.526,-67.003 -1.4038,-3.4344 -3.6376,-6.4405 -6.83,-8.7588 -7.4401,-18.499 -15.068,-22.421 -46.419,-30.166 -1.5826,-1.1146 -3.1275,-2.2706 -4.6482,-3.4466 -1.2304,-18.88 -17.848,-31.806 -31.114,-46.197 -14.513,-14.612 -22.975,-26.156 -35.857,-40 -4.7511,-19.559 -19.487,-33.926 -30.925,-49.676 -19.021,-19.831 -26.221,-50.69 -52.711,-62.924 -19.394,-6.8081 -33.826,-24.317 -54.545,-27.352 -12.255,2.4982 -31.092,7.2513 -39.304,-1.5494 -5.6669,-0.51564 -11.163,-1.5012 -16,-1.8656 -15.616,-6.7964 -31.258,-13.61 -47.43,-18.846 -31.638,-21.984 -77.176,-15.522 -104.09,-43.731 -29.011,-3.1079 -58.819,-11.134 -87.462,-11.257 l -0.5376,-0.5059 z"
         fill="#666666"
         stroke="#000000"
         stroke-width="12"
         id="path1169" /><g
         fill="#666666"
         id="g1175"><path
           d="m -20,140.93 c 4.3847,20.532 15.045,40.346 11.212,61.941 -0.44572,23.197 24.037,56.1 13.411,77.799 -6.0152,18.316 -15.089,34.052 -13.192,53.356 -2.232,19.396 -12.572,32.265 -1.9184,48.713 10.684,19.938 14.352,42.782 17.941,64.8 2.4284,22.402 24.14,44.855 24.053,67.345 1.4586,19.258 0.32013,86.082 -24.216,94.921 -17.587,7.9096 -49.575,-30.254 -58.788,-10.005 -5.8048,12.776 -16.015,9.1861 -15.143,-4.3656 -0.65017,-19.518 7.6497,-43.022 -7.9145,-58.846 -9.443,-17.406 -39.528,-17.737 -40.662,-37.98 0.40169,-24.366 19.997,-41.855 26.566,-64.34 14.163,-15.61 4.3498,-39.086 12.203,-57.145 3.8282,-20.419 11.062,-39.953 15.185,-60.244 1.7466,-18.215 3.4144,-36.297 6.3663,-54.365 1.6854,-13.326 4.5278,-27.463 13.925,-37.676 8.6566,-22.484 8.5995,-46.768 13.404,-70.036 1.4831,-5.1001 4.0148,-9.9076 7.5681,-13.872 z"
           id="path1171" /><path
           d="m -85.888,501.08 c -15.39,-1.4793 -16.105,17.698 -21.332,27.762 -6.6613,16.888 -4.1577,35.335 -4.7871,52.983 -1.0735,18.283 19.381,16.537 29.758,25.004 16.045,10.062 22.042,28.798 29.064,45.32 3.3578,15.096 3.0169,30.881 8.6079,45.464 4.016,13.837 -0.24936,28.352 2.6571,42.405 3.4613,12.429 -0.81867,30.204 12.366,37.555 16.249,6.1087 17.754,-15.953 26.346,-23.895 9.1043,-11.316 24.056,-17.954 38.57,-15.61 13.972,-1.9599 13.85,-21.726 11.335,-31.841 -7.7612,-9.7128 -20.165,-14.192 -28.074,-23.553 -8.3678,-11.569 -14.62,-26.024 -28.313,-31.871 -13.053,-4.24 -16.416,-18.536 -23.994,-28.44 -7.1603,-6.694 -22.074,-7.3764 -18.336,-21.325 0.26502,-13.05 1.7021,-26.439 -0.81551,-39.316 -7.7814,-13.347 -2.5989,-32.433 -15.761,-42.986 -3.5279,-7.7151 -10.348,-13.146 -17.294,-17.657 z"
           id="path1173" /></g><g
         fill="#4d4d4d"
         id="g1181"><path
           d="m 83.694,693.88 c -12.96,-8.6046 4.5762,-25.222 1.5711,-39.285 -3.6862,-17.295 -18.441,-51.446 -32.233,-61.916 -9.4033,-7.4545 -30.224,1.5439 -42.101,-1.8783 -26.488,-33.385 -13.5,-18.039 -34.347,-18.194 -5.7365,9.5085 -39.917,16.674 -40.814,23.34 0.19233,9.9137 5.5248,11.842 8.2244,21.444 1.7082,11.655 12.815,22.106 17.831,32.78 4.3374,11.268 11.966,20.796 19.31,30.22 4.4413,5.6352 11.293,8.0853 17.99,9.7899 9.9257,2.4364 16.211,10.624 23.882,16.434 8.4604,3.6609 18.798,5.6157 22.396,15.419 8.7769,16.96 28.165,3.3249 30.825,-2.9798 3.8161,-6.4973 12.757,-50.965 20.417,-52.433 1.406,-0.40711 -14.328,27.761 -12.952,27.261 z"
           id="path1177" /><path
           d="m 388.46,875.88 c -14.205,-0.85181 -17.565,-47.114 -33.058,-47.353 -12.957,-8.6066 -26.09,-17.858 -38.413,-26.993 -8.4543,-7.9022 -39.115,-8.2484 -49.501,-15.555 -14.359,-8.2475 -28.577,-16.735 -41.134,-27.578 -11.125,-6.6898 -25.7,5.484 -36.508,-1.585 -12.506,-4.9796 -18.436,-11.616 -30.303,-18.534 -15.044,-6.5186 -50.234,-89.52 -66.062,-94.434 -13.796,-3.3987 -8.471,55.504 -23.892,62.74 -11.798,10.156 -24.37,25.567 -21.505,39.258 6.8158,10.413 26.196,28.096 31.065,39.526 5.0998,15.397 10.421,31.129 21.624,43.338 9.0042,8.6693 17.299,18.413 27.629,25.59 11.295,9.7904 14.44,27.207 26.583,35.744 14.661,2.7502 37.534,-3.8151 49.483,5.3496 13.167,5.0856 26.702,9.5596 41.003,8.5296 19.38,-0.44605 38.868,1.054 58.038,-2.4469 15.151,-2.698 32.919,4.2066 45.407,-7.8341 18.35,9.8419 54.187,0.94933 39.542,-17.761 z"
           id="path1179" /></g><path
         d="m 554.29,915.22 c 25.203,-7.351 27.29,40.32 53.345,23.031 17.546,-17.452 39.612,-27.088 64.071,-30.481 20.649,-5.9421 42.674,-8.8502 62.002,-16.894 5.137,-24.06 -4.0018,-49.026 -8.788,-72.913 -10.971,-22.789 -11.727,-48.649 -15.563,-73.366 -2.2827,-24.09 -9.2224,-47.36 -12.402,-71.118 0.36731,-22.472 10.476,-70.186 -14.327,-61.805 -13.868,17.628 -23.634,30.266 -49.33,34.422 -22.666,8.4452 -54.697,8.3197 -78.305,14.194 -39.581,13.777 -71.09,44.666 -112.77,50.615 -22.661,7.6458 -45.261,16.317 -69.208,19.302 -25.141,7.1474 -49.897,15.346 -74.005,25.274 -18.433,6.0058 -37.821,9.1191 -55.58,17.133 -25.535,1.6929 8.7399,17.996 15.146,22.44 18.574,19.877 47.538,23.401 68.275,40.359 23.745,10.022 39.655,31.404 41.211,57.232 -0.66198,18.166 19.058,41.051 31.014,17.767 8.4552,-16.57 37.359,-11.408 49.765,-27.282 25.141,-3.0489 50.453,-3.6636 75.633,-5.3527 26.807,-2.7059 33.525,13.528 29.819,37.441 z"
         fill="#999999"
         id="path1183" /><path
         d="m -82.857,578.08 c -45.561,-25.034 -28.799,24.834 -5.4174,55.81 26.748,21.902 31.81,57.255 38.47,89.049 5.0142,38.726 23.664,66.865 37.06,96.498 20.885,28.723 66.848,13.738 86.426,44.278 19.222,22.338 46.963,42.109 77.956,37.817 63.106,13.266 127.78,17.84 190.88,30.332 54.392,1.2394 108.8,0.1488 163.2,0.5019 15.936,27.686 200.16,-18.206 30.651,-15.16 -30.78,-17.468 -67.588,-12.975 -101.28,-18.788 -32.439,1.8546 -64.355,-3.7757 -96.336,-6.1528 -38.538,-0.2746 -77.104,1.1246 -115.62,-0.7529 -26.76,-13.774 -64.442,1.4365 -84.647,-25.561 -6.1471,-30.556 -17.829,-71.771 -46.892,-90.092 -36.266,-32.674 -46.605,-69.933 -89.42,-95.771 -30.324,-23.544 -49.205,-65.364 -73.102,-94.017 -3.4908,-3.3036 -7.491,-6.1155 -11.931,-7.9928 z"
         fill="#1a1a1a"
         id="path1185" /><path
         d="m 388.57,918.08 c 14.38,-5.1429 21.369,-20.466 34.736,-27.214 11.916,-9.4452 27.491,-15.511 42.814,-12.73 14.831,0.30719 29.67,-4.0226 44.495,-3.327 9.215,4.4639 25.291,-7.0616 34.881,-6.5218 7.3008,3.2943 42.016,25.649 41.182,32.531 19.094,6.5169 36.905,12.536 36.909,20.018 0.004,7.4826 -12.897,19.697 -19.282,22.264 -0.37467,6.7363 -56.152,-17.099 -61.281,-18.811 -13.023,-5.2681 -27.439,-3.7309 -41.157,-3.261 -21.208,0.69044 -42.434,-0.88423 -63.646,-0.0279 -14.696,3.9171 -30.68,5.0059 -45.241,-0.072 -1.5713,-0.77906 -3.0631,-1.7251 -4.411,-2.8492 z"
         fill="#333333"
         id="path1187" /><path
         d="m 68.698,-150.5 c -21.21,19.147 -33.262,6.3068 -24.939,34.186 -6.5044,48.588 -41.665,87.943 -47.347,136.41 0.98136,45.325 -14.006,88.883 -16.469,133.3 14.009,40.736 31.383,83.854 7.3962,125.01 -6.9644,39.535 -5.4237,80.691 -2.5032,120.66 28.064,27.118 20.32,67.41 28.792,102.53 21.205,34.541 -15.109,71.545 5.5714,101.38 45.669,10.807 38.855,74.503 69.619,94.54 13.416,41.891 47.776,31.373 88.324,69.123 39.482,23.406 84.557,10.026 128.17,11.546 37.694,-1.3828 63.596,-40.151 105.34,-36.546 49.716,6.0989 76.958,-33.834 118.27,-51.039 34.005,-26.101 75.677,-29.766 116.19,-36.244 28.981,-11.858 55.274,-14.171 51.008,-69.897 -11.596,-38.204 -8.8534,-79.929 -10.573,-119.75 -1.7771,-32.121 9.5915,-77.501 -26.89,-93.402 -34.388,-25.486 -17.343,-76.907 -21.33,-113.87 9.9499,-41.749 -15.472,-77.091 -51.832,-95.116 -51.711,-25.416 -71.476,-82.453 -108.5,-122.53 -23.412,-33.84 -42.269,-81.107 -86.934,-90.719 -46.21,-5.333 -85.897,-31.088 -129.56,-45.222 -31.268,-21.726 -76.275,-15.359 -102.88,-43.238 -29.515,-3.1618 -59.864,-11.474 -88.932,-11.115 z"
         fill="#b3b3b3"
         id="path1189" /><path
         d="m 323.17,-75.689 c -17.998,-1.6376 -34.182,-7.9239 -32.972,15.98 0.0147,19.077 30.48,15.097 31.452,35.704 15.408,11.458 26.686,30.373 45.25,35.94 25.86,-1.7094 21.275,25.705 25.116,42.594 6.3492,19.807 21.904,34.824 32.579,52.408 14.125,22.136 38.502,35.563 50.82,58.948 9.7379,17.944 13.355,38.763 26.56,54.891 4.8272,15.415 16.107,31.362 34.051,25.873 17.951,2.4652 48.658,16.846 57.02,-6.0141 25.743,-4.6119 41.453,-44.084 22.197,-58.068 -7.7016,-19.149 -15.544,-22.51 -50.386,-30.943 0.0439,-19.92 -17.195,-33.128 -30.835,-47.925 -14.343,-14.441 -22.71,-25.867 -35.442,-39.549 -4.6954,-19.33 -19.236,-33.52 -30.54,-49.085 -18.799,-19.599 -25.938,-50.102 -52.118,-62.193 -19.167,-6.7284 -33.409,-24.03 -53.885,-27.029 -12.111,2.4689 -30.752,7.166 -38.867,-1.5317 z"
         fill="#e6e6e6"
         id="path1191" /><path
         d="m 70.671,-151 c -17.077,3.0354 -34.924,13.904 -32.658,33.219 -7.3604,15.86 -14.544,31.796 -21.747,47.643 -10.587,18.419 -22.046,37.43 -22.647,59.333 -2.7018,25.477 -22.082,47.133 -19.332,73.676 0.01318,43.164 -0.0086,86.327 -6.54e-4,129.49 -7.7775,16.093 -3.111,34.657 -7.886,51.117 -0.64282,15.047 -2.3004,33.836 1.0303,46.79 27.602,2.4183 26.632,-24.791 30.572,-41.392 9.5928,-15.679 3.9697,-36.995 9.1168,-54.441 2.9769,-17.549 6.1038,-35.125 15.816,-50.244 7.5153,-21.528 18.078,-42.102 32.824,-59.578 10.65,-15.088 13.864,-34.464 7.4129,-51.914 -4.8334,-16.658 -10.906,-33.302 -8.8869,-50.938 0.02233,-21.228 -0.02231,-42.457 -5e-6,-63.686 10.003,-12.635 22.634,-22.23 37.544,-27.758 4.8879,-2.2869 2.8995,-11.831 4.0926,-14.752 1.0553,-2.5835 -5.1804,-8.1292 -14.335,-7.5443 -12.725,-0.39873 -24.827,-0.58715 -8.9072,-17.091"
         fill="#808080"
         id="path1193" /><path
         d="m 680,478.08 c -12.244,-2.5314 -22.702,8.3011 -35.108,5.7414 -23.535,-0.0115 -47.071,-0.11321 -70.606,-0.0273 -9.0528,-6.7344 -22.274,-2.633 -30.535,-11.18 -11.898,-6.1469 -22.452,-14.493 -35.039,-18.991 -9.5008,-6.0598 -21.003,-5.5014 -30.964,-10.309 -8.0275,1.3975 5.2406,12.89 5.0141,18.192 3.002,9.8116 6.3867,19.276 10.752,28.533 3.1869,10.121 7.0682,20.332 14.948,27.798 8.3475,10.533 14.6,23.046 17.508,36.06 8.1437,2.1815 8.3902,14.103 14.722,20.443 5.5625,7.798 9.4327,17.226 7.8532,26.932 1.6514,15.339 19.104,10.55 29.404,13.071 14.227,2.8152 28.88,-1.3917 42.995,2.7249 9.5189,1.5713 19.443,0.35509 29.032,2.1972 8.1202,2.5603 15.964,0.94272 24.231,1.3894 7.3082,-0.57596 22.719,7.7919 23.117,-3.1978 1.2169,-15.924 -3.6007,-31.445 -4.2983,-47.277 -1.6229,-10.606 -1.9207,-21.364 -1.7399,-32.024 -1.3089,-13.645 -3.0648,-27.377 -7.9274,-40.272 -1.5522,-6.5268 -1.3977,-13.359 -3.3573,-19.803 z"
         fill="#999999"
         id="path1195" /></g></g><g
     id="g1401"
     transform="matrix(0.76100014,0,0,0.76100014,13.592181,1.9429535)"
     style="fill:#ffffff"><g
       id="layer1-6"
       transform="matrix(0.02968745,-0.00679411,0.00679411,0.02968745,-19.693233,-0.14225949)"
       style="fill:#ffffff"><g
         id="g1350"
         transform="matrix(1.2036399,-0.22250421,0.22250421,1.2036399,245.042,58.640736)"
         style="fill:#ffffff"><path
           id="path4718"
           d="M 182.42,394.8784 617.58,274.4326 481.9456,525.5674 356.9079,441.8558 616.9394,274.852 342.4262,439.03 325.472,523.4481 292.27,430.2 616.8952,274.83 286.2652,423.842 Z"
           style="fill:#ffffff" /><path
           id="path4720"
           d="m 333.9176,525.3425 55.9462,-50.951 -35.9655,-26.4745 z"
           style="fill:#ffffff" /></g></g><g
       inkscape:label="Layer 1"
       id="layer1-1"
       style="fill:#ffffff" /></g></svg>
