<?xml version="1.0" encoding="UTF-8" standalone="no"?>
<!-- Created with Inkscape (http://www.inkscape.org/) -->

<svg
   width="25mm"
   height="25mm"
   viewBox="0 0 25 25"
   version="1.1"
   id="svg5"
   xml:space="preserve"
   inkscape:version="1.2 (dc2aedaf03, 2022-05-15)"
   sodipodi:docname="scissors.svg"
   xmlns:inkscape="http://www.inkscape.org/namespaces/inkscape"
   xmlns:sodipodi="http://sodipodi.sourceforge.net/DTD/sodipodi-0.dtd"
   xmlns="http://www.w3.org/2000/svg"
   xmlns:svg="http://www.w3.org/2000/svg"><sodipodi:namedview
     id="namedview7"
     pagecolor="#505050"
     bordercolor="#eeeeee"
     borderopacity="1"
     inkscape:showpageshadow="0"
     inkscape:pageopacity="0"
     inkscape:pagecheckerboard="0"
     inkscape:deskcolor="#505050"
     inkscape:document-units="mm"
     showgrid="false"
     inkscape:zoom="5.6568543"
     inkscape:cx="60.369241"
     inkscape:cy="53.563339"
     inkscape:window-width="1920"
     inkscape:window-height="1017"
     inkscape:window-x="-8"
     inkscape:window-y="-8"
     inkscape:window-maximized="1"
     inkscape:current-layer="svg5"><inkscape:page
       x="0"
       y="0"
       width="25"
       height="25"
       id="page716" /><inkscape:page
       x="60"
       y="0"
       width="381"
       height="381"
       id="page718" /></sodipodi:namedview><defs
     id="defs2"><clipPath
       clipPathUnits="userSpaceOnUse"
       id="clipPath25"><path
         d="M 0,1080 H 1080 V 0 H 0 Z"
         id="path23" /></clipPath><clipPath
       clipPathUnits="userSpaceOnUse"
       id="clipPath33"><path
         d="M 345.947,904.217 H 746.983 V 154.45 H 345.947 Z"
         id="path31" /></clipPath><clipPath
       clipPathUnits="userSpaceOnUse"
       id="clipPath37"><path
         d="m 453.284,638.706 h 0.02 v -0.11 h -0.02 z"
         id="path35" /></clipPath><clipPath
       clipPathUnits="userSpaceOnUse"
       id="clipPath77"><path
         d="m 488.092,604.554 h 73.915 V 175.783 h -73.915 z"
         id="path75" /></clipPath><clipPath
       clipPathUnits="userSpaceOnUse"
       id="clipPath129"><path
         d="m 333.017,915.164 h 158.73 v -335.03 h -158.73 z"
         id="path127" /></clipPath><clipPath
       clipPathUnits="userSpaceOnUse"
       id="clipPath145"><path
         d="M 546.469,921.894 H 708.597 V 580.134 H 546.469 Z"
         id="path143" /></clipPath><clipPath
       clipPathUnits="userSpaceOnUse"
       id="clipPath161"><path
         d="m 504.935,609.706 h 54.902 V 175.783 h -54.902 z"
         id="path159" /></clipPath><clipPath
       id="clip-path"><circle
         cx="400"
         cy="400"
         r="400"
         style="fill:none"
         id="circle1028" /></clipPath><linearGradient
       id="Unbenannter_Verlauf_66"
       x1="404.70291"
       y1="387.70291"
       x2="139.7002"
       y2="652.70569"
       gradientUnits="userSpaceOnUse"><stop
         offset="0"
         id="stop1031" /><stop
         offset="1"
         stop-opacity="0"
         id="stop1033" /></linearGradient><filter
       id="a"
       color-interpolation-filters="sRGB"
       x="-0.029732194"
       y="-0.076233707"
       width="1.059422"
       height="1.1526316"><feGaussianBlur
         stdDeviation="12.898788"
         id="feGaussianBlur1162" /></filter><clipPath
       clipPathUnits="userSpaceOnUse"
       id="clipPath25-0"><path
         d="M 0,1080 H 1080 V 0 H 0 Z"
         id="path23-8" /></clipPath><clipPath
       clipPathUnits="userSpaceOnUse"
       id="clipPath33-9"><path
         d="M 345.947,904.217 H 746.983 V 154.45 H 345.947 Z"
         id="path31-0" /></clipPath><clipPath
       clipPathUnits="userSpaceOnUse"
       id="clipPath37-1"><path
         d="m 453.284,638.706 h 0.02 v -0.11 h -0.02 z"
         id="path35-9" /></clipPath><clipPath
       clipPathUnits="userSpaceOnUse"
       id="clipPath77-1"><path
         d="m 488.092,604.554 h 73.915 V 175.783 h -73.915 z"
         id="path75-4" /></clipPath><clipPath
       clipPathUnits="userSpaceOnUse"
       id="clipPath129-9"><path
         d="m 333.017,915.164 h 158.73 v -335.03 h -158.73 z"
         id="path127-2" /></clipPath><clipPath
       clipPathUnits="userSpaceOnUse"
       id="clipPath145-7"><path
         d="M 546.469,921.894 H 708.597 V 580.134 H 546.469 Z"
         id="path143-7" /></clipPath><clipPath
       clipPathUnits="userSpaceOnUse"
       id="clipPath161-9"><path
         d="m 504.935,609.706 h 54.902 V 175.783 h -54.902 z"
         id="path159-1" /></clipPath><clipPath
       id="clip-path-7"><circle
         cx="400"
         cy="400"
         r="400"
         style="fill:none"
         id="circle1028-1" /></clipPath><filter
       id="a-9"
       color-interpolation-filters="sRGB"
       x="-0.029732194"
       y="-0.076233707"
       width="1.059422"
       height="1.1526316"><feGaussianBlur
         stdDeviation="12.898788"
         id="feGaussianBlur1162-1" /></filter><clipPath
       clipPathUnits="userSpaceOnUse"
       id="clipPath564"><path
         d="M 345.947,904.217 H 746.983 V 154.45 H 345.947 Z"
         id="path562" /></clipPath><clipPath
       clipPathUnits="userSpaceOnUse"
       id="clipPath568"><path
         d="m 453.284,638.706 h 0.02 v -0.11 h -0.02 z"
         id="path566" /></clipPath><clipPath
       clipPathUnits="userSpaceOnUse"
       id="clipPath608"><path
         d="m 488.092,604.554 h 73.915 V 175.783 h -73.915 z"
         id="path606" /></clipPath><clipPath
       clipPathUnits="userSpaceOnUse"
       id="clipPath660"><path
         d="m 333.017,915.164 h 158.73 v -335.03 h -158.73 z"
         id="path658" /></clipPath><clipPath
       clipPathUnits="userSpaceOnUse"
       id="clipPath676"><path
         d="M 546.469,921.894 H 708.597 V 580.134 H 546.469 Z"
         id="path674" /></clipPath><clipPath
       clipPathUnits="userSpaceOnUse"
       id="clipPath692"><path
         d="m 504.935,609.706 h 54.902 V 175.783 h -54.902 z"
         id="path690" /></clipPath><clipPath
       clipPathUnits="userSpaceOnUse"
       id="clipPath958"><path
         d="M 1.6245485e-6,1080 H 1080 V -9.5442213e-6 L 9.3614599e-6,8.5085717e-6 Z"
         id="path960"
         style="stroke-width:1" /></clipPath><clipPath
       clipPathUnits="userSpaceOnUse"
       id="clipPath962"><path
         d="M 1.6245485e-6,1080 H 1080 V -9.5442213e-6 L 9.3614599e-6,8.5085717e-6 Z"
         id="path964"
         style="stroke-width:1" /></clipPath><clipPath
       clipPathUnits="userSpaceOnUse"
       id="clipPath966"><path
         d="M 1.6245485e-6,1080 H 1080 V -9.5442213e-6 L 9.3614599e-6,8.5085717e-6 Z"
         id="path968"
         style="stroke-width:1" /></clipPath><clipPath
       clipPathUnits="userSpaceOnUse"
       id="clipPath970"><path
         d="m -440.35399,420.0708 1079.99999,-1e-5 2e-5,-1080 -1080,2e-5 z"
         id="path972"
         style="stroke-width:1" /></clipPath><clipPath
       clipPathUnits="userSpaceOnUse"
       id="clipPath974"><path
         d="m -583.8232,247.3003 1079.99999,-1e-5 2e-5,-1080 -1080,2e-5 z"
         id="path976"
         style="stroke-width:1" /></clipPath><clipPath
       clipPathUnits="userSpaceOnUse"
       id="clipPath978"><path
         d="m -583.8232,247.3003 1079.99999,-1e-5 2e-5,-1080 -1080,2e-5 z"
         id="path980"
         style="stroke-width:1" /></clipPath><clipPath
       clipPathUnits="userSpaceOnUse"
       id="clipPath982"><path
         d="m -626.6992,419.96041 1079.99999,-1e-5 2e-5,-1080 -1080,2e-5 z"
         id="path984"
         style="stroke-width:1" /></clipPath><clipPath
       clipPathUnits="userSpaceOnUse"
       id="clipPath986"><path
         d="m -425.8711,304.6802 1079.99999,-1e-5 2e-5,-1080 -1080,10e-6 z"
         id="path988"
         style="stroke-width:1" /></clipPath><clipPath
       clipPathUnits="userSpaceOnUse"
       id="clipPath990"><path
         d="m -425.8711,304.6802 1079.99999,-1e-5 2e-5,-1080 -1080,10e-6 z"
         id="path992"
         style="stroke-width:1" /></clipPath><clipPath
       clipPathUnits="userSpaceOnUse"
       id="clipPath994"><path
         d="m -683.9395,229.3105 1080,-1e-5 2e-5,-1080 -1080.00001,2e-5 z"
         id="path996"
         style="stroke-width:1" /></clipPath><clipPath
       clipPathUnits="userSpaceOnUse"
       id="clipPath998"><path
         d="m -533.3071,593.74611 1079.99999,-1e-5 2e-5,-1080 -1080,10e-6 z"
         id="path1000"
         style="stroke-width:1" /></clipPath><clipPath
       clipPathUnits="userSpaceOnUse"
       id="clipPath1002"><path
         d="m -533.3071,593.74611 1079.99999,-1e-5 2e-5,-1080 -1080,10e-6 z"
         id="path1004"
         style="stroke-width:1" /></clipPath><clipPath
       clipPathUnits="userSpaceOnUse"
       id="clipPath1006"><path
         d="M 1.6245485e-6,1080 H 1080 V -9.5442213e-6 L 9.3614599e-6,8.5085717e-6 Z"
         id="path1008"
         style="stroke-width:1" /></clipPath><clipPath
       clipPathUnits="userSpaceOnUse"
       id="clipPath1010"><path
         d="m -546.8564,580.19531 1079.99999,-10e-6 2e-5,-1080 -1080,1e-5 z"
         id="path1012"
         style="stroke-width:1" /></clipPath><clipPath
       clipPathUnits="userSpaceOnUse"
       id="clipPath1014"><path
         d="m -546.8564,580.19531 1079.99999,-10e-6 2e-5,-1080 -1080,1e-5 z"
         id="path1016"
         style="stroke-width:1" /></clipPath><clipPath
       clipPathUnits="userSpaceOnUse"
       id="clipPath1018"><path
         d="M 1.6245485e-6,1080 H 1080 V -9.5442213e-6 L 9.3614599e-6,8.5085717e-6 Z"
         id="path1020"
         style="stroke-width:1" /></clipPath><clipPath
       clipPathUnits="userSpaceOnUse"
       id="clipPath25-3"><path
         d="M 0,1080 H 1080 V 0 H 0 Z"
         id="path23-9" /></clipPath><clipPath
       clipPathUnits="userSpaceOnUse"
       id="clipPath33-4"><path
         d="M 345.947,904.217 H 746.983 V 154.45 H 345.947 Z"
         id="path31-1" /></clipPath><clipPath
       clipPathUnits="userSpaceOnUse"
       id="clipPath37-3"><path
         d="m 453.284,638.706 h 0.02 v -0.11 h -0.02 z"
         id="path35-99" /></clipPath><clipPath
       clipPathUnits="userSpaceOnUse"
       id="clipPath77-9"><path
         d="m 488.092,604.554 h 73.915 V 175.783 h -73.915 z"
         id="path75-7" /></clipPath><clipPath
       clipPathUnits="userSpaceOnUse"
       id="clipPath129-6"><path
         d="m 333.017,915.164 h 158.73 v -335.03 h -158.73 z"
         id="path127-4" /></clipPath><clipPath
       clipPathUnits="userSpaceOnUse"
       id="clipPath145-6"><path
         d="M 546.469,921.894 H 708.597 V 580.134 H 546.469 Z"
         id="path143-0" /></clipPath><clipPath
       clipPathUnits="userSpaceOnUse"
       id="clipPath161-0"><path
         d="m 504.935,609.706 h 54.902 V 175.783 h -54.902 z"
         id="path159-5" /></clipPath><clipPath
       id="clip-path-5"><circle
         cx="400"
         cy="400"
         r="400"
         style="fill:none"
         id="circle1028-3" /></clipPath><filter
       id="a-0"
       color-interpolation-filters="sRGB"
       x="-0.029732194"
       y="-0.076233707"
       width="1.059422"
       height="1.1526316"><feGaussianBlur
         stdDeviation="12.898788"
         id="feGaussianBlur1162-0" /></filter><clipPath
       clipPathUnits="userSpaceOnUse"
       id="clipPath25-6"><path
         d="M 0,1080 H 1080 V 0 H 0 Z"
         id="path23-83" /></clipPath><clipPath
       clipPathUnits="userSpaceOnUse"
       id="clipPath33-2"><path
         d="M 345.947,904.217 H 746.983 V 154.45 H 345.947 Z"
         id="path31-5" /></clipPath><clipPath
       clipPathUnits="userSpaceOnUse"
       id="clipPath37-4"><path
         d="m 453.284,638.706 h 0.02 v -0.11 h -0.02 z"
         id="path35-4" /></clipPath><clipPath
       clipPathUnits="userSpaceOnUse"
       id="clipPath77-3"><path
         d="m 488.092,604.554 h 73.915 V 175.783 h -73.915 z"
         id="path75-71" /></clipPath><clipPath
       clipPathUnits="userSpaceOnUse"
       id="clipPath129-5"><path
         d="m 333.017,915.164 h 158.73 v -335.03 h -158.73 z"
         id="path127-3" /></clipPath><clipPath
       clipPathUnits="userSpaceOnUse"
       id="clipPath145-5"><path
         d="M 546.469,921.894 H 708.597 V 580.134 H 546.469 Z"
         id="path143-1" /></clipPath><clipPath
       clipPathUnits="userSpaceOnUse"
       id="clipPath161-5"><path
         d="m 504.935,609.706 h 54.902 V 175.783 h -54.902 z"
         id="path159-9" /></clipPath><clipPath
       id="clip-path-70"><circle
         cx="400"
         cy="400"
         r="400"
         style="fill:none"
         id="circle1028-4" /></clipPath><filter
       id="a-6"
       color-interpolation-filters="sRGB"
       x="-0.029732194"
       y="-0.076233707"
       width="1.059422"
       height="1.1526316"><feGaussianBlur
         stdDeviation="12.898788"
         id="feGaussianBlur1162-2" /></filter></defs><g
     inkscape:label="Layer 1"
     inkscape:groupmode="layer"
     id="layer1" /><g
     id="g1231"
     transform="matrix(0.50397618,0,0,0.50397618,-0.15305216,-0.06687551)"><g
       id="g558"
       transform="matrix(-0.05129631,-0.05129631,-0.05129631,0.05129631,83.713776,21.733668)"
       clip-path="url(#clipPath1018)"><g
         id="g560" /><g
         id="g592"><g
           clip-path="url(#clipPath564)"
           opacity="0.949997"
           id="g590"><g
             transform="translate(639.6494,638.5962)"
             id="g572"><path
               d="M 0,0 C -0.01,0.07 -0.02,0.11 -0.02,0.11 Z"
               style="fill:#333333;fill-opacity:1;fill-rule:nonzero;stroke:none"
               id="path570" /></g><g
             transform="translate(711.4531,808.5981)"
             id="g576"><path
               d="m 0,0 c -0.007,-0.138 -0.015,-0.275 -0.022,-0.412 -0.048,-0.877 -0.112,-1.75 -0.199,-2.616 -0.003,-0.031 -0.006,-0.063 -0.008,-0.094 -0.094,-0.92 -0.211,-1.832 -0.348,-2.737 -0.017,-0.108 -0.035,-0.215 -0.052,-0.323 -0.126,-0.803 -0.268,-1.601 -0.428,-2.392 -0.022,-0.115 -0.044,-0.23 -0.067,-0.345 -0.184,-0.886 -0.385,-1.766 -0.609,-2.637 -0.005,-0.022 -0.012,-0.044 -0.018,-0.065 -0.213,-0.824 -0.447,-1.64 -0.695,-2.449 -0.042,-0.139 -0.085,-0.278 -0.128,-0.416 -0.527,-1.671 -1.127,-3.308 -1.798,-4.91 -0.055,-0.131 -0.111,-0.262 -0.168,-0.393 -0.315,-0.738 -0.645,-1.468 -0.99,-2.19 -0.028,-0.059 -0.054,-0.118 -0.082,-0.176 -0.382,-0.789 -0.782,-1.568 -1.198,-2.336 -0.049,-0.093 -0.102,-0.184 -0.153,-0.277 -0.37,-0.676 -0.755,-1.344 -1.152,-2.004 -0.068,-0.113 -0.134,-0.227 -0.203,-0.339 -0.453,-0.742 -0.921,-1.474 -1.407,-2.194 -0.008,-0.012 -0.017,-0.025 -0.026,-0.037 -0.463,-0.685 -0.944,-1.357 -1.437,-2.02 -0.094,-0.128 -0.189,-0.256 -0.285,-0.383 -1.02,-1.353 -2.098,-2.659 -3.232,-3.915 -0.11,-0.122 -0.222,-0.241 -0.332,-0.362 -0.498,-0.542 -1.005,-1.075 -1.524,-1.597 -0.085,-0.086 -0.168,-0.174 -0.253,-0.259 -0.593,-0.591 -1.2,-1.169 -1.818,-1.733 -0.11,-0.101 -0.223,-0.199 -0.334,-0.298 -0.517,-0.466 -1.045,-0.921 -1.579,-1.368 -0.15,-0.125 -0.3,-0.252 -0.452,-0.376 -0.636,-0.521 -1.281,-1.031 -1.94,-1.524 -0.076,-0.058 -0.155,-0.112 -0.232,-0.169 -0.58,-0.43 -1.17,-0.847 -1.766,-1.256 -0.202,-0.138 -0.404,-0.274 -0.608,-0.41 -0.561,-0.374 -1.131,-0.739 -1.707,-1.094 -0.132,-0.082 -0.261,-0.166 -0.393,-0.247 -0.669,-0.404 -1.348,-0.792 -2.035,-1.169 -0.247,-0.136 -0.497,-0.268 -0.747,-0.401 -8.023,-4.264 -17.174,-6.689 -26.895,-6.689 -31.69,0 -57.38,25.691 -57.38,57.381 0,26.581 18.067,48.927 42.585,55.454 0.178,0.048 0.355,0.101 0.535,0.147 0.807,0.207 1.623,0.393 2.443,0.565 0.199,0.041 0.401,0.08 0.601,0.12 0.741,0.147 1.486,0.281 2.237,0.399 0.113,0.018 0.227,0.039 0.341,0.056 0.9,0.136 1.808,0.252 2.723,0.346 0.058,0.006 0.117,0.01 0.175,0.016 0.849,0.084 1.703,0.148 2.561,0.194 0.134,0.008 0.267,0.016 0.399,0.022 0.921,0.044 1.848,0.07 2.78,0.07 31.7,0 57.39,-25.69 57.39,-57.389 C 0.07,1.84 0.044,0.918 0,0 m -215.381,-0.636 c -0.014,-0.23 -0.036,-0.456 -0.052,-0.685 -0.063,-0.886 -0.143,-1.766 -0.245,-2.64 -0.034,-0.293 -0.072,-0.584 -0.111,-0.875 -0.111,-0.837 -0.24,-1.667 -0.387,-2.492 -0.046,-0.263 -0.09,-0.526 -0.14,-0.788 -0.187,-0.97 -0.396,-1.932 -0.63,-2.884 -0.023,-0.091 -0.041,-0.184 -0.064,-0.274 -0.277,-1.1 -0.584,-2.187 -0.923,-3.261 -0.004,-0.013 -0.009,-0.026 -0.013,-0.039 -0.32,-1.009 -0.671,-2.003 -1.044,-2.987 -0.078,-0.205 -0.162,-0.408 -0.242,-0.612 -0.316,-0.806 -0.649,-1.604 -1,-2.391 -0.1,-0.223 -0.2,-0.445 -0.302,-0.666 -0.375,-0.814 -0.769,-1.618 -1.181,-2.411 -0.079,-0.151 -0.153,-0.304 -0.233,-0.454 -1.023,-1.927 -2.152,-3.79 -3.381,-5.579 -0.054,-0.08 -0.113,-0.158 -0.168,-0.237 -0.548,-0.79 -1.116,-1.564 -1.702,-2.324 -0.127,-0.163 -0.256,-0.325 -0.384,-0.488 -0.545,-0.692 -1.106,-1.371 -1.683,-2.036 -0.13,-0.15 -0.257,-0.3 -0.388,-0.449 -0.662,-0.749 -1.341,-1.482 -2.041,-2.195 -0.036,-0.037 -0.071,-0.076 -0.107,-0.113 -1.526,-1.547 -3.142,-3.005 -4.834,-4.373 -0.128,-0.102 -0.258,-0.201 -0.386,-0.303 -0.704,-0.558 -1.42,-1.1 -2.15,-1.626 -9.424,-6.785 -20.981,-10.794 -33.48,-10.794 -31.7,0 -57.39,25.691 -57.39,57.381 0,22.972 13.497,42.779 32.99,51.949 0.767,0.362 1.543,0.709 2.328,1.037 0.344,0.143 0.694,0.273 1.041,0.41 0.563,0.223 1.127,0.443 1.699,0.648 0.423,0.151 0.852,0.291 1.279,0.432 0.508,0.169 1.018,0.334 1.532,0.489 0.465,0.14 0.934,0.27 1.404,0.399 0.488,0.133 0.978,0.26 1.472,0.38 0.493,0.12 0.988,0.236 1.486,0.343 0.481,0.104 0.966,0.198 1.451,0.29 0.513,0.097 1.027,0.193 1.545,0.276 0.481,0.077 0.965,0.141 1.45,0.206 0.529,0.071 1.056,0.145 1.59,0.202 0.485,0.051 0.975,0.085 1.463,0.124 0.539,0.044 1.074,0.095 1.616,0.123 0.511,0.027 1.028,0.03 1.542,0.044 0.501,0.012 0.998,0.037 1.502,0.037 16.834,0 31.975,-7.249 42.471,-18.798 9.261,-10.191 14.905,-23.729 14.905,-38.587 0,-1.145 -0.039,-2.281 -0.105,-3.409 M -57.32,95.618 c -7.28,0 -14.37,-0.84 -21.17,-2.43 0,0 -0.08,-0.02 -0.22,-0.06 -0.04,0 -0.08,-0.01 -0.13,-0.029 -0.18,-0.04 -0.43,-0.111 -0.74,-0.191 -1.399,-0.384 -4.039,-1.17 -7.288,-2.423 -0.008,-0.003 -0.015,-0.006 -0.023,-0.009 -0.984,-0.38 -2.023,-0.802 -3.102,-1.27 -0.081,-0.036 -0.161,-0.069 -0.243,-0.105 -0.486,-0.212 -0.978,-0.434 -1.477,-0.665 -0.131,-0.06 -0.263,-0.122 -0.393,-0.184 -0.496,-0.231 -0.994,-0.469 -1.498,-0.719 -0.099,-0.049 -0.199,-0.101 -0.297,-0.151 -0.427,-0.214 -0.857,-0.436 -1.288,-0.663 -0.16,-0.084 -0.318,-0.166 -0.477,-0.252 -0.478,-0.257 -0.957,-0.522 -1.438,-0.796 -0.172,-0.098 -0.345,-0.199 -0.519,-0.299 -0.448,-0.261 -0.897,-0.528 -1.344,-0.803 -0.159,-0.097 -0.316,-0.197 -0.475,-0.297 -0.417,-0.262 -0.832,-0.531 -1.246,-0.805 -0.165,-0.11 -0.329,-0.217 -0.493,-0.328 -0.477,-0.325 -0.952,-0.659 -1.423,-1.002 -0.154,-0.112 -0.306,-0.226 -0.459,-0.34 -0.458,-0.341 -0.913,-0.689 -1.361,-1.047 -0.1,-0.081 -0.199,-0.162 -0.3,-0.244 -0.442,-0.36 -0.878,-0.731 -1.307,-1.108 -0.123,-0.108 -0.247,-0.215 -0.368,-0.325 -0.464,-0.417 -0.919,-0.844 -1.365,-1.282 -0.101,-0.101 -0.201,-0.203 -0.301,-0.304 -0.467,-0.47 -0.927,-0.948 -1.369,-1.442 -0.001,-0.001 -0.002,-0.002 -0.002,-0.002 -10e-4,-0.001 -10e-4,-0.001 -10e-4,-0.001 -0.001,-0.001 -0.002,-0.002 -0.003,-0.003 -11.17,-12.5 -23.67,-33.341 -26.83,-38.841 -2.575,-4.459 -6.655,-10.707 -9.982,-14.364 -0.768,-0.843 -1.494,-1.548 -2.154,-2.061 v -0.001 c -0.001,-10e-4 -0.003,-0.002 -0.004,-0.003 -1.15,-5.821 -1.75,-11.841 -1.75,-18 0,-4.801 0.36,-9.52 1.07,-14.131 v -0.01 c 4.96,-4.02 8.13,-10.16 8.13,-17.029 0,-0.971 -0.06,-1.921 -0.19,-2.861 -0.09,-1.389 -0.19,-3.159 -0.31,-5.259 -1.67,-30.871 -6.39,-133.161 -6.98,-144.94 -0.67,-13.341 -2.67,-29.841 -3.33,-31.671 -0.67,-1.829 -0.34,-3.67 2.83,-5.829 1.017,-0.697 2.555,-1.827 4.518,-3.31 -3.644,-3.388 -11.872,-11.218 -20.565,-19.521 -8.692,8.303 -16.919,16.132 -20.564,19.521 1.964,1.483 3.502,2.613 4.519,3.31 3.17,2.159 3.5,4 2.83,5.829 -0.66,1.83 -2.66,18.33 -3.33,31.671 -0.59,11.779 -5.31,114.069 -6.98,144.94 -0.12,2.1 -0.22,3.87 -0.31,5.259 -0.13,0.94 -0.19,1.89 -0.19,2.861 0,6.869 3.17,13.009 8.13,17.029 v 0.01 c 0.71,4.611 1.07,9.33 1.07,14.131 0,6.159 -0.6,12.179 -1.75,18 -3.52,2.739 -8.97,10.939 -12.14,16.429 -3.16,5.5 -15.66,26.341 -26.83,38.841 -9.6,10.739 -25.56,15.69 -29.86,16.869 -0.31,0.08 -0.56,0.151 -0.74,0.191 -0.05,0.019 -0.09,0.029 -0.13,0.029 -0.14,0.04 -0.22,0.06 -0.22,0.06 -6.8,1.59 -13.89,2.43 -21.17,2.43 -15.418,0 -29.956,-3.762 -42.753,-10.412 0.013,0.009 0.026,0.018 0.039,0.027 -0.159,-0.083 -0.313,-0.172 -0.471,-0.255 -0.617,-0.325 -1.23,-0.656 -1.838,-0.994 -0.258,-0.143 -0.516,-0.286 -0.773,-0.432 -0.767,-0.436 -1.53,-0.879 -2.283,-1.336 -0.126,-0.076 -0.25,-0.155 -0.376,-0.233 -0.681,-0.417 -1.356,-0.844 -2.026,-1.279 -0.265,-0.172 -0.53,-0.347 -0.794,-0.522 -0.554,-0.368 -1.103,-0.742 -1.649,-1.121 -0.227,-0.158 -0.456,-0.313 -0.681,-0.473 -0.715,-0.506 -1.422,-1.023 -2.122,-1.548 -0.243,-0.183 -0.482,-0.37 -0.724,-0.555 -0.497,-0.382 -0.991,-0.768 -1.481,-1.16 -0.268,-0.214 -0.536,-0.428 -0.801,-0.645 -0.588,-0.48 -1.17,-0.967 -1.745,-1.462 -0.241,-0.207 -0.48,-0.416 -0.719,-0.626 -0.525,-0.461 -1.046,-0.926 -1.56,-1.398 -0.271,-0.249 -0.539,-0.499 -0.806,-0.751 -0.428,-0.401 -0.85,-0.807 -1.269,-1.216 -0.245,-0.238 -0.491,-0.474 -0.732,-0.715 -0.593,-0.591 -1.178,-1.19 -1.754,-1.797 -0.252,-0.266 -0.5,-0.536 -0.749,-0.804 -0.374,-0.404 -0.745,-0.81 -1.113,-1.22 -0.265,-0.296 -0.53,-0.592 -0.791,-0.892 -0.414,-0.474 -0.821,-0.953 -1.226,-1.436 -0.327,-0.391 -0.651,-0.785 -0.973,-1.181 -0.371,-0.458 -0.74,-0.919 -1.103,-1.384 -0.258,-0.331 -0.512,-0.666 -0.766,-1 -0.309,-0.408 -0.614,-0.819 -0.916,-1.232 -0.24,-0.327 -0.482,-0.652 -0.717,-0.983 -0.468,-0.656 -0.926,-1.318 -1.377,-1.987 -0.236,-0.349 -0.465,-0.704 -0.696,-1.056 -0.268,-0.41 -0.533,-0.821 -0.794,-1.234 -0.237,-0.374 -0.473,-0.749 -0.704,-1.127 -0.284,-0.465 -0.562,-0.934 -0.838,-1.404 -0.323,-0.548 -0.64,-1.1 -0.952,-1.655 -0.256,-0.459 -0.513,-0.918 -0.763,-1.382 -0.215,-0.4 -0.426,-0.802 -0.636,-1.205 -0.219,-0.421 -0.433,-0.845 -0.645,-1.27 -0.198,-0.394 -0.397,-0.787 -0.589,-1.185 -0.347,-0.718 -0.684,-1.441 -1.013,-2.169 -0.184,-0.408 -0.36,-0.82 -0.539,-1.232 -0.187,-0.431 -0.371,-0.863 -0.552,-1.297 -0.178,-0.427 -0.354,-0.855 -0.525,-1.285 -0.192,-0.483 -0.377,-0.969 -0.561,-1.456 -0.242,-0.637 -0.476,-1.277 -0.703,-1.921 -0.174,-0.49 -0.347,-0.982 -0.512,-1.476 -0.147,-0.438 -0.288,-0.879 -0.428,-1.321 -0.146,-0.458 -0.287,-0.918 -0.426,-1.379 -0.129,-0.428 -0.26,-0.856 -0.382,-1.287 -0.224,-0.783 -0.436,-1.569 -0.639,-2.36 -0.11,-0.43 -0.212,-0.863 -0.316,-1.295 -0.116,-0.483 -0.23,-0.966 -0.339,-1.452 -0.1,-0.445 -0.198,-0.891 -0.291,-1.338 -0.116,-0.557 -0.224,-1.117 -0.33,-1.677 -0.117,-0.616 -0.227,-1.234 -0.331,-1.855 -0.096,-0.571 -0.191,-1.145 -0.276,-1.72 -0.066,-0.445 -0.127,-0.891 -0.187,-1.337 -0.071,-0.525 -0.135,-1.052 -0.197,-1.579 -0.05,-0.425 -0.102,-0.849 -0.146,-1.275 -0.087,-0.852 -0.163,-1.707 -0.227,-2.566 -0.032,-0.416 -0.054,-0.835 -0.08,-1.254 -0.034,-0.556 -0.064,-1.112 -0.089,-1.672 -0.019,-0.438 -0.037,-0.877 -0.05,-1.317 -0.019,-0.657 -0.029,-1.315 -0.035,-1.975 -0.002,-0.27 -0.014,-0.539 -0.014,-0.81 0,-24.544 9.525,-46.868 25.09,-63.474 2.225,-2.374 4.573,-4.631 7.034,-6.76 9.69,-9.721 16.35,-13.341 32.02,-23.5 10.73,-6.971 24.23,-18.831 31.67,-25.621 0.03,-0.02 0.05,-0.05 0.08,-0.069 1.84,-1.571 3.62,-3.221 5.33,-4.951 0.04,-0.03 0.07,-0.06 0.09,-0.08 l 0.06,-0.06 c 0.8,-0.806 1.585,-1.627 2.356,-2.462 11.559,-12.533 19.708,-28.247 22.98,-45.683 0,0 0.01,-0.04 0.02,-0.11 0,-0.03 0.01,-0.08 0.02,-0.13 0.4,-2.15 0.73,-4.32 0.96,-6.52 0.01,-0.09 0.02,-0.18 0.04,-0.27 1.67,-11.44 4.87,-33.66 5.72,-42.04 1.098,-10.789 3.656,-28.476 5.347,-30.624 0.113,-0.145 0.222,-0.221 0.327,-0.221 0.031,0 0.089,0.016 0.127,0.02 0.059,0.007 0.119,0.014 0.193,0.031 0.082,0.017 0.174,0.041 0.274,0.07 0.045,0.013 0.096,0.03 0.145,0.045 2.267,0.71 8.39,3.891 15.391,8.616 0.018,-0.092 0.024,-0.185 0.046,-0.277 0,0 11.441,-77.676 16.72,-113.723 -0.114,-110.839 -0.245,-289.755 0.1,-292.857 0.5,-4.5 3.75,-6.5 5.75,-6.25 2,0.25 1.75,2.5 3,9 0.39,2.009 2.67,15.91 5.88,35.83 3.793,23.527 8.9,55.458 13.753,86.093 2.479,-15.625 5.018,-31.579 7.417,-46.593 6.28,-39.33 11.59,-72.15 12.21,-75.33 1.25,-6.5 1,-8.75 3,-9 2,-0.25 5.25,1.75 5.75,6.25 0.022,0.181 0.041,1.002 0.057,2.368 0.209,16.645 0.186,116.949 0.103,209.851 0,4.061 0,8.101 -0.01,12.12 -0.01,20.641 -0.02,40.71 -0.04,59.181 0,3.14 -0.01,6.239 -0.01,9.29 v 0.02 c 5.27,36.03 16.72,113.75 16.72,113.75 0.021,0.092 0.028,0.185 0.047,0.277 7.977,-5.385 14.845,-8.782 16.129,-8.782 0.015,0 0.031,0.013 0.047,0.016 0.032,0.007 0.065,0.015 0.098,0.035 0.017,0.01 0.033,0.026 0.049,0.039 0.038,0.03 0.077,0.067 0.116,0.114 0.011,0.014 0.022,0.027 0.032,0.041 0.607,0.794 1.319,3.545 2.032,7.26 0,0 -10e-4,0.001 -0.002,0.001 1.291,6.675 2.594,16.42 3.298,23.335 0.85,8.379 4.05,30.599 5.72,42.04 0.02,0.089 0.03,0.179 0.04,0.27 0.23,2.199 0.56,4.369 0.96,6.519 0.01,0.05 0.02,0.1 0.02,0.131 0.01,0.069 0.02,0.109 0.02,0.109 3.49,18.6 12.53,35.241 25.34,48.15 0,0 0.02,0.02 0.06,0.06 0.02,0.02 0.05,0.05 0.09,0.08 1.71,1.73 3.49,3.38 5.33,4.951 0.03,0.019 0.05,0.049 0.08,0.069 7.44,6.79 20.94,18.65 31.67,25.621 15.67,10.159 22.33,13.779 32.02,23.5 19.68,17.029 32.12,42.179 32.12,70.23 0,51.279 -41.57,92.849 -92.85,92.849"
               style="fill:#333333;fill-opacity:1;fill-rule:nonzero;stroke:none"
               id="path574" /></g><g
             id="g588"><g
               id="g578" /><g
               id="g586"><g
                 clip-path="url(#clipPath568)"
                 opacity="0.160004"
                 id="g584"><g
                   transform="translate(453.3047,638.7061)"
                   id="g582"><path
                     d="M 0,0 C 0,0 -0.01,-0.04 -0.02,-0.11 Z"
                     style="fill:#333333;fill-opacity:1;fill-rule:nonzero;stroke:none"
                     id="path580" /></g></g></g></g></g></g></g><g
       id="g594"
       transform="matrix(-0.05129631,-0.05129631,-0.05129631,0.05129631,30.023924,19.320089)"
       clip-path="url(#clipPath1014)"><path
         d="M 0,0 C 0,-7.48 -6.069,-13.551 -13.549,-13.551 -21.03,-13.551 -27.1,-7.48 -27.1,0 c 0,7.479 6.07,13.539 13.551,13.539 C -6.069,13.539 0,7.479 0,0 m 15.221,-105.53 c 0,4.059 0,8.099 -0.01,12.12 -0.011,20.639 -0.021,40.71 -0.04,59.18 0,3.139 -0.011,6.24 -0.011,9.29 v 0.019 c -0.05,49.95 -0.099,86.081 -0.099,86.081 0,0 -9.901,9.5 -20.971,20.09 -1.779,1.7 -3.59,3.43 -5.389,5.149 -0.671,0.65 -1.35,1.29 -2.02,1.931 -10.841,10.359 -20.971,19.989 -22.37,21.17 -1.581,1.33 -8.031,-0.771 -13.71,-4.75 -2.641,-1.851 -5.121,-4.11 -6.861,-6.621 -0.11,-0.15 -0.21,-0.299 -0.3,-0.449 -0.489,-0.75 -0.91,-1.52 -1.25,-2.301 -0.069,-0.159 -0.129,-0.319 -0.19,-0.48 -0.75,-1.94 -1,-3.989 -0.52,-6.069 0,0 11.44,-77.66 16.721,-113.711 1.519,-10.42 2.529,-17.359 2.61,-17.96 0.239,-1.849 3.049,-11.779 7.659,-36.75 1.35,-7.29 2.85,-15.859 4.481,-25.889 0.809,-4.97 1.65,-10.31 2.529,-16.02 2.811,-18.36 6.9,-44.45 11.201,-71.561 2.48,-15.629 5.02,-31.589 7.42,-46.61 C 0.381,-279 5.69,-311.82 6.311,-315 c 1.25,-6.5 1,-8.75 3,-9 2,-0.25 5.25,1.75 5.75,6.25 0.04,0.329 0.07,2.71 0.089,6.829 v 0.021 c 0.17,25.67 0.151,118.74 0.071,205.37"
         style="fill:#e0e0e0;fill-opacity:1;fill-rule:nonzero;stroke:none"
         id="path596" /></g><g
       id="g598"
       transform="matrix(-0.05129631,-0.05129631,-0.05129631,0.05129631,30.023924,19.320089)"
       clip-path="url(#clipPath1010)"><path
         d="M 0,0 C 0,-7.48 -6.069,-13.551 -13.549,-13.551 -21.03,-13.551 -27.1,-7.48 -27.1,0 c 0,7.479 6.07,13.539 13.551,13.539 C -6.069,13.539 0,7.479 0,0 Z m 15.221,-105.53 c 0,4.059 0,8.099 -0.01,12.12 -0.011,20.639 -0.021,40.71 -0.04,59.18 0,3.139 -0.011,6.24 -0.011,9.29 v 0.019 c -0.05,49.95 -0.099,86.081 -0.099,86.081 0,0 -9.901,9.5 -20.971,20.09 -1.779,1.7 -3.59,3.43 -5.389,5.149 -0.671,0.65 -1.35,1.29 -2.02,1.931 -10.841,10.359 -20.971,19.989 -22.37,21.17 -1.581,1.33 -8.031,-0.771 -13.71,-4.75 -2.641,-1.851 -5.121,-4.11 -6.861,-6.621 -0.11,-0.15 -0.21,-0.299 -0.3,-0.449 -0.489,-0.75 -0.91,-1.52 -1.25,-2.301 -0.069,-0.159 -0.129,-0.319 -0.19,-0.48 -0.75,-1.94 -1,-3.989 -0.52,-6.069 0,0 11.44,-77.66 16.721,-113.711 1.519,-10.42 2.529,-17.359 2.61,-17.96 0.239,-1.849 3.049,-11.779 7.659,-36.75 1.35,-7.29 2.85,-15.859 4.481,-25.889 0.809,-4.97 1.65,-10.31 2.529,-16.02 2.811,-18.36 6.9,-44.45 11.201,-71.561 2.48,-15.629 5.02,-31.589 7.42,-46.61 C 0.381,-279 5.69,-311.82 6.311,-315 c 1.25,-6.5 1,-8.75 3,-9 2,-0.25 5.25,1.75 5.75,6.25 0.04,0.329 0.07,2.71 0.089,6.829 v 0.021 c 0.17,25.67 0.151,118.74 0.071,205.37 z"
         style="fill:none;stroke:#333333;stroke-width:5;stroke-linecap:butt;stroke-linejoin:miter;stroke-miterlimit:10;stroke-dasharray:none;stroke-opacity:1"
         id="path600" /></g><g
       id="g602"
       transform="matrix(-0.05129631,-0.05129631,-0.05129631,0.05129631,83.713776,21.733668)"
       clip-path="url(#clipPath1006)"><g
         id="g604" /><g
         id="g616"><g
           clip-path="url(#clipPath608)"
           opacity="0.160004"
           id="g614"><g
             transform="translate(562.0068,188.9043)"
             id="g612"><path
               d="m 0,0 v -0.021 c -0.02,-4.119 -0.05,-6.5 -0.09,-6.829 -0.5,-4.5 -3.75,-6.5 -5.75,-6.25 -2,0.25 -1.75,2.5 -3,9 -0.62,3.18 -5.93,36 -12.21,75.329 -2.4,15.021 -4.94,30.981 -7.42,46.611 -4.3,27.11 -8.39,53.2 -11.2,71.56 -0.88,5.71 -1.72,11.05 -2.53,16.02 -7.23,44.37 -11.83,60.25 -12.14,62.64 -0.33,2.669 -19.33,131.67 -19.33,131.67 -1.41,6.15 3.48,11.97 9.12,15.92 -1.16,-2.3 -1.64,-4.77 -1.06,-7.29 0,0 19,-129 19.33,-131.671 0.31,-2.389 4.91,-18.269 12.14,-62.639 0.81,-4.97 1.65,-10.31 2.53,-16.02 2.81,-18.36 6.9,-44.45 11.2,-71.56 2.48,-15.63 5.02,-31.59 7.42,-46.61 C -6.71,40.53 -1.4,7.71 -0.78,4.53 -0.43,2.7 -0.189,1.21 0,0"
               style="fill:#333333;fill-opacity:1;fill-rule:nonzero;stroke:none"
               id="path610" /></g></g></g></g><g
       id="g618"
       transform="matrix(-0.05129631,-0.05129631,-0.05129631,0.05129631,31.414059,19.320012)"
       clip-path="url(#clipPath1002)"><path
         d="m 0,0 c -7.48,0 -13.55,6.07 -13.55,13.551 0,7.479 6.07,13.539 13.55,13.539 7.48,0 13.549,-6.06 13.549,-13.539 C 13.549,6.07 7.48,0 0,0 m 26.53,123.081 c -0.231,0.059 -0.46,0.109 -0.67,0.159 -0.311,0.071 -0.61,0.12 -0.89,0.15 -0.04,0.01 -0.07,0.01 -0.11,0.01 -0.16,0.02 -0.311,0.04 -0.46,0.04 -0.811,0.04 -1.441,-0.08 -1.8,-0.39 C 21.19,121.86 11.07,112.24 0.23,101.88 -13.39,88.87 -28.15,74.71 -28.15,74.71 c 0,0 -0.01,-8.51 -0.03,-22.989 -0.02,-15.341 -0.05,-37.37 -0.07,-63.051 -0.11,-110.84 -0.24,-289.77 0.1,-292.869 0.5,-4.5 3.75,-6.5 5.75,-6.25 2,0.25 1.75,2.5 3,9 0.1,0.559 0.36,2.059 0.75,4.38 0.09,0.509 0.18,1.069 0.28,1.67 0.14,0.859 0.29,1.79 0.46,2.809 1.06,6.351 2.57,15.7 4.39,26.97 3.79,23.53 8.9,55.471 13.75,86.11 1.62,10.2 3.21,20.26 4.71,29.821 2.49,15.83 4.74,30.29 6.49,41.74 8.67,56.659 14.33,76 14.67,78.659 0.08,0.601 1.09,7.52 2.609,17.9 v 0.02 c 5.271,36.03 16.721,113.75 16.721,113.75 2.26,9.83 -11.591,18.82 -18.9,20.701"
         style="fill:#e0e0e0;fill-opacity:1;fill-rule:nonzero;stroke:none"
         id="path620" /></g><g
       id="g622"
       transform="matrix(-0.05129631,-0.05129631,-0.05129631,0.05129631,31.414059,19.320012)"
       clip-path="url(#clipPath998)"><path
         d="m 0,0 c -7.48,0 -13.55,6.07 -13.55,13.551 0,7.479 6.07,13.539 13.55,13.539 7.48,0 13.549,-6.06 13.549,-13.539 C 13.549,6.07 7.48,0 0,0 Z m 26.53,123.081 c -0.231,0.059 -0.46,0.109 -0.67,0.159 -0.311,0.071 -0.61,0.12 -0.89,0.15 -0.04,0.01 -0.07,0.01 -0.11,0.01 -0.16,0.02 -0.311,0.04 -0.46,0.04 -0.811,0.04 -1.441,-0.08 -1.8,-0.39 C 21.19,121.86 11.07,112.24 0.23,101.88 -13.39,88.87 -28.15,74.71 -28.15,74.71 c 0,0 -0.01,-8.51 -0.03,-22.989 -0.02,-15.341 -0.05,-37.37 -0.07,-63.051 -0.11,-110.84 -0.24,-289.77 0.1,-292.869 0.5,-4.5 3.75,-6.5 5.75,-6.25 2,0.25 1.75,2.5 3,9 0.1,0.559 0.36,2.059 0.75,4.38 0.09,0.509 0.18,1.069 0.28,1.67 0.14,0.859 0.29,1.79 0.46,2.809 1.06,6.351 2.57,15.7 4.39,26.97 3.79,23.53 8.9,55.471 13.75,86.11 1.62,10.2 3.21,20.26 4.71,29.821 2.49,15.83 4.74,30.29 6.49,41.74 8.67,56.659 14.33,76 14.67,78.659 0.08,0.601 1.09,7.52 2.609,17.9 v 0.02 c 5.271,36.03 16.721,113.75 16.721,113.75 2.26,9.83 -11.591,18.82 -18.9,20.701 z"
         style="fill:none;stroke:#333333;stroke-width:5;stroke-linecap:butt;stroke-linejoin:miter;stroke-miterlimit:10;stroke-dasharray:none;stroke-opacity:1"
         id="path624" /></g><g
       id="g626"
       transform="matrix(-0.05129631,-0.05129631,-0.05129631,0.05129631,4.9929711,30.287328)"
       clip-path="url(#clipPath994)"><path
         d="M 0,0 -0.01,0.01"
         style="fill:none;stroke:#ff0000;stroke-width:5;stroke-linecap:butt;stroke-linejoin:miter;stroke-miterlimit:10;stroke-dasharray:none;stroke-opacity:1"
         id="path628" /></g><g
       id="g630"
       transform="matrix(-0.05129631,-0.05129631,-0.05129631,0.05129631,22.097115,39.659097)"
       clip-path="url(#clipPath990)"><path
         d="m 0,0 c -31.7,0 -57.39,25.69 -57.39,57.38 0,31.7 25.69,57.39 57.39,57.39 31.69,0 57.38,-25.69 57.38,-57.39 C 57.38,25.69 31.69,0 0,0 m 94.45,-158.52 c -0.66,1.83 -2.66,18.33 -3.33,31.67 -0.59,11.78 -5.31,114.07 -6.98,144.94 -0.12,2.1 -0.22,3.87 -0.31,5.26 -0.13,0.94 -0.19,1.89 -0.19,2.86 0,6.87 3.17,13.01 8.13,17.03 v 0.01 c 0.71,4.61 1.07,9.33 1.07,14.13 0,6.16 -0.6,12.18 -1.75,18 -3.52,2.74 -8.97,10.94 -12.14,16.43 -3.16,5.5 -15.66,26.34 -26.83,38.84 -9.6,10.74 -25.56,15.69 -29.86,16.87 -0.31,0.08 -0.56,0.15 -0.74,0.19 -0.05,0.02 -0.09,0.03 -0.13,0.03 -0.14,0.04 -0.22,0.06 -0.22,0.06 -6.8,1.59 -13.89,2.43 -21.17,2.43 -51.28,0 -92.85,-41.57 -92.85,-92.85 0,-28.05 12.44,-53.2 32.12,-70.23 9.69,-9.72 16.35,-13.34 32.02,-23.5 10.73,-6.97 24.23,-18.83 31.67,-25.62 0.03,-0.02 0.05,-0.05 0.08,-0.07 1.84,-1.57 3.62,-3.22 5.33,-4.95 0.04,-0.03 0.07,-0.06 0.09,-0.08 l 0.06,-0.06 c 12.81,-12.91 21.85,-29.55 25.34,-48.15 0,0 0.01,-0.04 0.02,-0.11 0,-0.03 0.01,-0.08 0.02,-0.13 0.4,-2.15 0.73,-4.32 0.96,-6.52 0.01,-0.09 0.02,-0.18 0.04,-0.27 1.67,-11.44 4.87,-33.66 5.72,-42.04 1.17,-11.5 4,-30.84 5.67,-30.84 1.66,0 12.66,5.67 23.33,14 10.67,8.34 18.83,14.67 22,16.84 3.17,2.16 3.5,4 2.83,5.83"
         style="fill:#e75d39;fill-opacity:1;fill-rule:nonzero;stroke:none"
         id="path632" /></g><g
       id="g634"
       transform="matrix(-0.05129631,-0.05129631,-0.05129631,0.05129631,22.097115,39.659097)"
       clip-path="url(#clipPath986)"><path
         d="m 0,0 c -31.7,0 -57.39,25.69 -57.39,57.38 0,31.7 25.69,57.39 57.39,57.39 31.69,0 57.38,-25.69 57.38,-57.39 C 57.38,25.69 31.69,0 0,0 Z m 94.45,-158.52 c -0.66,1.83 -2.66,18.33 -3.33,31.67 -0.59,11.78 -5.31,114.07 -6.98,144.94 -0.12,2.1 -0.22,3.87 -0.31,5.26 -0.13,0.94 -0.19,1.89 -0.19,2.86 0,6.87 3.17,13.01 8.13,17.03 v 0.01 c 0.71,4.61 1.07,9.33 1.07,14.13 0,6.16 -0.6,12.18 -1.75,18 -3.52,2.74 -8.97,10.94 -12.14,16.43 -3.16,5.5 -15.66,26.34 -26.83,38.84 -9.6,10.74 -25.56,15.69 -29.86,16.87 -0.31,0.08 -0.56,0.15 -0.74,0.19 -0.05,0.02 -0.09,0.03 -0.13,0.03 -0.14,0.04 -0.22,0.06 -0.22,0.06 -6.8,1.59 -13.89,2.43 -21.17,2.43 -51.28,0 -92.85,-41.57 -92.85,-92.85 0,-28.05 12.44,-53.2 32.12,-70.23 9.69,-9.72 16.35,-13.34 32.02,-23.5 10.73,-6.97 24.23,-18.83 31.67,-25.62 0.03,-0.02 0.05,-0.05 0.08,-0.07 1.84,-1.57 3.62,-3.22 5.33,-4.95 0.04,-0.03 0.07,-0.06 0.09,-0.08 l 0.06,-0.06 c 12.81,-12.91 21.85,-29.55 25.34,-48.15 0,0 0.01,-0.04 0.02,-0.11 0,-0.03 0.01,-0.08 0.02,-0.13 0.4,-2.15 0.73,-4.32 0.96,-6.52 0.01,-0.09 0.02,-0.18 0.04,-0.27 1.67,-11.44 4.87,-33.66 5.72,-42.04 1.17,-11.5 4,-30.84 5.67,-30.84 1.66,0 12.66,5.67 23.33,14 10.67,8.34 18.83,14.67 22,16.84 3.17,2.16 3.5,4 2.83,5.83 z"
         style="fill:none;stroke:#333333;stroke-width:5;stroke-linecap:butt;stroke-linejoin:miter;stroke-miterlimit:10;stroke-dasharray:none;stroke-opacity:1"
         id="path636" /></g><g
       id="g638"
       transform="matrix(-0.05129631,-0.05129631,-0.05129631,0.05129631,17.708824,23.443907)"
       clip-path="url(#clipPath982)"><path
         d="M 0,0 C 0,0 0.011,-0.04 0.021,-0.11"
         style="fill:none;stroke:#ff0000;stroke-width:5;stroke-linecap:butt;stroke-linejoin:miter;stroke-miterlimit:10;stroke-dasharray:none;stroke-opacity:1"
         id="path640" /></g><g
       id="g642"
       transform="matrix(-0.05129631,-0.05129631,-0.05129631,0.05129631,11.051378,34.500114)"
       clip-path="url(#clipPath978)"><path
         d="m 0,0 c 0,31.7 25.689,57.39 57.38,57.39 31.7,0 57.39,-25.69 57.39,-57.39 0,-31.69 -25.69,-57.38 -57.39,-57.38 C 25.689,-57.38 0,-31.69 0,0 m -34.24,-221.73 c 3.17,-2.17 11.33,-8.5 22,-16.84 10.67,-8.33 21.67,-14 23.33,-14 1.67,0 4.5,19.34 5.67,30.84 0.849,8.38 4.05,30.6 5.719,42.04 0.021,0.09 0.031,0.18 0.041,0.27 0.23,2.2 0.56,4.37 0.959,6.52 0.01,0.05 0.021,0.1 0.021,0.13 0.01,0.07 0.02,0.11 0.02,0.11 3.49,18.6 12.53,35.24 25.339,48.15 0,0 0.021,0.02 0.061,0.06 0.019,0.02 0.05,0.05 0.09,0.08 1.71,1.73 3.49,3.38 5.33,4.95 0.03,0.02 0.05,0.05 0.08,0.07 7.439,6.79 20.939,18.65 31.67,25.62 15.67,10.16 22.33,13.78 32.019,23.5 19.681,17.03 32.12,42.18 32.12,70.23 0,51.28 -41.57,92.85 -92.849,92.85 -7.28,0 -14.37,-0.84 -21.17,-2.43 0,0 -0.08,-0.02 -0.221,-0.06 -0.04,0 -0.08,-0.01 -0.13,-0.03 C 35.68,90.29 35.43,90.22 35.12,90.14 30.819,88.96 14.859,84.01 5.26,73.27 -5.91,60.77 -18.41,39.93 -21.57,34.43 -24.74,28.94 -30.19,20.74 -33.71,18 -34.86,12.18 -35.46,6.16 -35.46,0 c 0,-4.8 0.359,-9.52 1.069,-14.13 v -0.01 c 4.96,-4.02 8.13,-10.16 8.13,-17.03 0,-0.97 -0.059,-1.92 -0.189,-2.86 -0.09,-1.39 -0.191,-3.16 -0.311,-5.26 -1.67,-30.87 -6.389,-133.16 -6.979,-144.94 -0.67,-13.34 -2.67,-29.84 -3.33,-31.67 -0.67,-1.83 -0.34,-3.67 2.83,-5.83"
         style="fill:#e75d39;fill-opacity:1;fill-rule:nonzero;stroke:none"
         id="path644" /></g><g
       id="g646"
       transform="matrix(-0.05129631,-0.05129631,-0.05129631,0.05129631,11.051378,34.500114)"
       clip-path="url(#clipPath974)"><path
         d="m 0,0 c 0,31.7 25.689,57.39 57.38,57.39 31.7,0 57.39,-25.69 57.39,-57.39 0,-31.69 -25.69,-57.38 -57.39,-57.38 C 25.689,-57.38 0,-31.69 0,0 Z m -34.24,-221.73 c 3.17,-2.17 11.33,-8.5 22,-16.84 10.67,-8.33 21.67,-14 23.33,-14 1.67,0 4.5,19.34 5.67,30.84 0.849,8.38 4.05,30.6 5.719,42.04 0.021,0.09 0.031,0.18 0.041,0.27 0.23,2.2 0.56,4.37 0.959,6.52 0.01,0.05 0.021,0.1 0.021,0.13 0.01,0.07 0.02,0.11 0.02,0.11 3.49,18.6 12.53,35.24 25.339,48.15 0,0 0.021,0.02 0.061,0.06 0.019,0.02 0.05,0.05 0.09,0.08 1.71,1.73 3.49,3.38 5.33,4.95 0.03,0.02 0.05,0.05 0.08,0.07 7.439,6.79 20.939,18.65 31.67,25.62 15.67,10.16 22.33,13.78 32.019,23.5 19.681,17.03 32.12,42.18 32.12,70.23 0,51.28 -41.57,92.85 -92.849,92.85 -7.28,0 -14.37,-0.84 -21.17,-2.43 0,0 -0.08,-0.02 -0.221,-0.06 -0.04,0 -0.08,-0.01 -0.13,-0.03 C 35.68,90.29 35.43,90.22 35.12,90.14 30.819,88.96 14.859,84.01 5.26,73.27 -5.91,60.77 -18.41,39.93 -21.57,34.43 -24.74,28.94 -30.19,20.74 -33.71,18 -34.86,12.18 -35.46,6.16 -35.46,0 c 0,-4.8 0.359,-9.52 1.069,-14.13 v -0.01 c 4.96,-4.02 8.13,-10.16 8.13,-17.03 0,-0.97 -0.059,-1.92 -0.189,-2.86 -0.09,-1.39 -0.191,-3.16 -0.311,-5.26 -1.67,-30.87 -6.389,-133.16 -6.979,-144.94 -0.67,-13.34 -2.67,-29.84 -3.33,-31.67 -0.67,-1.83 -0.34,-3.67 2.83,-5.83 z"
         style="fill:none;stroke:#333333;stroke-width:5;stroke-linecap:butt;stroke-linejoin:miter;stroke-miterlimit:10;stroke-dasharray:none;stroke-opacity:1"
         id="path648" /></g><g
       id="g650"
       transform="matrix(-0.05129631,-0.05129631,-0.05129631,0.05129631,27.273308,32.997066)"
       clip-path="url(#clipPath970)"><path
         d="M 0,0 C 0.01,0.07 0.02,0.11 0.02,0.11"
         style="fill:none;stroke:#ff0000;stroke-width:5;stroke-linecap:butt;stroke-linejoin:miter;stroke-miterlimit:10;stroke-dasharray:none;stroke-opacity:1"
         id="path652" /></g><g
       id="g654"
       transform="matrix(-0.05129631,-0.05129631,-0.05129631,0.05129631,83.713776,21.733668)"
       clip-path="url(#clipPath966)"><g
         id="g656" /><g
         id="g668"><g
           clip-path="url(#clipPath660)"
           opacity="0.389999"
           id="g666"><g
             transform="translate(434.3667,895.0942)"
             id="g664"><path
               d="M 0,0 C -12.37,0 -23.83,-3.91 -33.2,-10.58 -25.72,-7 -17.34,-5 -8.5,-5 c 31.69,0 57.38,-25.69 57.38,-57.39 0,-19.31 -9.54,-36.39 -24.16,-46.79 19.32,9.23 32.66,28.95 32.66,51.79 C 57.38,-25.69 31.69,0 0,0 m 46.29,-309.96 c -1.67,0 -4.5,19.34 -5.67,30.84 -0.85,8.38 -4.05,30.6 -5.72,42.04 -0.02,0.09 -0.03,0.18 -0.04,0.27 -0.23,2.2 -0.56,4.37 -0.96,6.52 -0.01,0.05 -0.02,0.1 -0.02,0.13 -0.01,0.07 -0.02,0.11 -0.02,0.11 -3.49,18.6 -12.53,35.24 -25.34,48.15 l -0.06,0.06 c -0.02,0.02 -0.05,0.05 -0.09,0.08 -1.71,1.73 -3.49,3.38 -5.33,4.95 -0.03,0.02 -0.05,0.05 -0.08,0.07 -7.44,6.79 -20.94,18.65 -31.67,25.62 -15.67,10.16 -22.33,13.78 -32.02,23.5 -19.68,17.03 -32.12,42.18 -32.12,70.23 0,32.35 16.54,60.84 41.64,77.46 -29.79,-15.46 -50.14,-46.58 -50.14,-82.46 0,-28.05 12.44,-53.2 32.12,-70.23 9.69,-9.72 16.35,-13.34 32.02,-23.5 10.73,-6.97 24.23,-18.83 31.67,-25.62 0.03,-0.02 0.05,-0.05 0.08,-0.07 1.84,-1.57 3.62,-3.22 5.33,-4.95 0.04,-0.03 0.07,-0.06 0.09,-0.08 l 0.06,-0.06 c 12.81,-12.91 21.85,-29.55 25.34,-48.15 0,0 0.01,-0.04 0.02,-0.11 0,-0.03 0.01,-0.08 0.02,-0.13 0.4,-2.15 0.73,-4.32 0.96,-6.52 0.01,-0.09 0.02,-0.18 0.04,-0.27 1.67,-11.44 4.87,-33.66 5.72,-42.04 1.17,-11.5 4,-30.84 5.67,-30.84 1.16,0 6.84,2.75 13.8,7.24 -2.74,-1.44 -4.68,-2.24 -5.3,-2.24"
               style="fill:#b53921;fill-opacity:1;fill-rule:nonzero;stroke:none"
               id="path662" /></g></g></g></g><g
       id="g670"
       transform="matrix(-0.05129631,-0.05129631,-0.05129631,0.05129631,83.713776,21.733668)"
       clip-path="url(#clipPath962)"><g
         id="g672" /><g
         id="g684"><g
           clip-path="url(#clipPath676)"
           opacity="0.389999"
           id="g682"><g
             transform="translate(589.0869,905.9741)"
             id="g680"><path
               d="m 0,0 c -11.17,-12.5 -23.67,-33.34 -26.83,-38.84 -3.17,-5.49 -8.62,-13.69 -12.14,-16.43 -1.15,-5.82 -1.75,-11.84 -1.75,-18 0,-4.8 0.36,-9.52 1.07,-14.13 v -0.01 c 4.96,-4.02 8.13,-10.16 8.13,-17.03 0,-0.97 -0.06,-1.92 -0.19,-2.86 -0.09,-1.39 -0.19,-3.16 -0.31,-5.26 -1.67,-30.87 -6.39,-133.16 -6.98,-144.94 -0.67,-13.34 -2.67,-29.84 -3.33,-31.67 -0.67,-1.83 -0.34,-3.67 2.83,-5.83 3.17,-2.17 11.33,-8.5 22,-16.84 10.67,-8.33 21.67,-14 23.33,-14 0.67,0 1.52,3.07 2.37,7.5 -4.38,2.47 -10.09,6.12 -15.7,10.5 -10.67,8.34 -18.83,14.67 -22,16.84 -3.17,2.16 -3.5,4 -2.83,5.83 0.66,1.83 2.66,18.33 3.33,31.67 0.59,11.78 5.31,114.07 6.98,144.94 0.12,2.1 0.22,3.87 0.31,5.26 0.13,0.94 0.19,1.89 0.19,2.86 0,6.87 -3.17,13.01 -8.13,17.03 v 0.01 c -0.71,4.61 -1.07,9.33 -1.07,14.13 0,6.16 0.6,12.18 1.75,18 3.52,2.74 8.97,10.94 12.14,16.43 C -13.67,-29.34 -1.17,-8.5 10,4 14.75,9.31 21.05,13.2 26.73,15.92 20.3,13.83 7.96,8.91 0,0 m 62.12,-11.88 c -9.45,0 -18.36,-2.28 -26.21,-6.33 5.14,1.52 10.58,2.33 16.21,2.33 31.7,0 57.39,-25.69 57.39,-57.39 0,-22.24 -12.65,-41.53 -31.16,-51.05 23.8,7 41.16,29 41.16,55.05 0,31.7 -25.69,57.39 -57.39,57.39"
               style="fill:#b53921;fill-opacity:1;fill-rule:nonzero;stroke:none"
               id="path678" /></g></g></g></g><g
       id="g686"
       transform="matrix(-0.05129631,-0.05129631,-0.05129631,0.05129631,83.713776,21.733668)"
       clip-path="url(#clipPath958)"><g
         id="g688" /><g
         id="g700"><g
           clip-path="url(#clipPath692)"
           opacity="0.160004"
           id="g698"><g
             transform="translate(515.4868,566.9644)"
             id="g696"><path
               d="m 0,0 c 0,0 -0.44,-326.16 -0.09,-373.3 -0.8,-4.88 -1.33,-7.991 -1.49,-8.86 -1.25,-6.5 -1,-8.75 -3,-9 -2,-0.25 -5.25,1.75 -5.75,6.25 -0.5,4.5 0,378.91 0,378.91 0,0 47.58,45.67 50.75,48.34 0.64,0.54 2.07,0.52 3.93,0.03 C 30.59,29.36 0,0 0,0"
               style="fill:#333333;fill-opacity:1;fill-rule:nonzero;stroke:none"
               id="path694" /></g></g></g></g></g></svg>
